<svg xmlns="http://www.w3.org/2000/svg" xmlns:xlink="http://www.w3.org/1999/xlink" width="639" zoomAndPan="magnify" viewBox="0 0 479.25 104.249996" height="139" preserveAspectRatio="xMidYMid meet" version="1.0"><defs><g/></defs><path fill="#ee6afa" d="M 43.214844 5.566406 C 44.867188 5.59375 46.410156 6.023438 47.839844 6.851562 C 57.457031 12.316406 67.105469 17.742188 76.78125 23.121094 C 79.167969 25.175781 79.597656 27.605469 78.066406 30.398438 C 76.4375 32.3125 74.410156 32.914062 71.988281 32.199219 C 62.683594 27.03125 53.375 21.867188 44.070312 16.699219 C 34.765625 21.867188 25.460938 27.03125 16.152344 32.199219 C 12.855469 32.988281 10.597656 31.820312 9.390625 28.6875 C 8.90625 26.417969 9.5625 24.5625 11.359375 23.121094 C 21.261719 17.625 31.140625 12.089844 40.988281 6.507812 C 41.710938 6.089844 42.453125 5.773438 43.214844 5.566406 Z M 43.214844 5.566406 " fill-opacity="0.994" fill-rule="evenodd"/><path fill="#ff00ff" d="M 43.898438 22.351562 C 52.109375 26.796875 60.273438 31.335938 68.390625 35.964844 C 70.082031 36.890625 71.878906 37.433594 73.785156 37.59375 C 73.871094 49.925781 73.898438 62.253906 73.871094 74.585938 C 74.785156 74.558594 75.699219 74.585938 76.613281 74.671875 C 78.308594 75.597656 78.738281 76.9375 77.894531 78.699219 C 77.574219 79.074219 77.203125 79.390625 76.78125 79.640625 C 70.566406 79.890625 64.34375 79.976562 58.113281 79.894531 C 58.199219 68.925781 58.113281 57.964844 57.859375 47.011719 C 57.351562 46.117188 56.582031 45.632812 55.546875 45.558594 C 47.839844 45.441406 40.132812 45.441406 32.425781 45.558594 C 31.460938 45.683594 30.746094 46.167969 30.285156 47.011719 C 30.027344 57.964844 29.941406 68.925781 30.027344 79.894531 C 23.792969 79.980469 17.570312 79.894531 11.359375 79.640625 C 9.769531 78.65625 9.398438 77.316406 10.246094 75.613281 C 10.578125 75.167969 11.003906 74.855469 11.53125 74.671875 C 12.441406 74.585938 13.355469 74.558594 14.269531 74.585938 C 14.269531 62.257812 14.269531 49.925781 14.269531 37.59375 C 16.234375 37.519531 18.0625 36.976562 19.75 35.964844 C 27.8125 31.421875 35.859375 26.882812 43.898438 22.351562 Z M 47.496094 58.832031 C 49.199219 58.855469 50.167969 59.710938 50.40625 61.398438 C 49.910156 63.523438 48.65625 64.179688 46.640625 63.367188 C 45.546875 62.355469 45.347656 61.183594 46.039062 59.859375 C 46.496094 59.445312 46.984375 59.105469 47.496094 58.832031 Z M 47.496094 58.832031 " fill-opacity="0.996" fill-rule="evenodd"/><path fill="#ee6bfa" d="M 34.992188 50.609375 C 41.042969 50.609375 47.097656 50.609375 53.148438 50.609375 C 53.148438 60.371094 53.148438 70.132812 53.148438 79.894531 C 47.097656 79.894531 41.042969 79.894531 34.992188 79.894531 C 34.992188 70.132812 34.992188 60.371094 34.992188 50.609375 Z M 47.496094 58.832031 C 46.984375 59.105469 46.496094 59.445312 46.039062 59.859375 C 45.347656 61.183594 45.546875 62.355469 46.640625 63.367188 C 48.65625 64.179688 49.910156 63.523438 50.40625 61.398438 C 50.167969 59.710938 49.199219 58.855469 47.496094 58.832031 Z M 47.496094 58.832031 " fill-opacity="0.985" fill-rule="evenodd"/><g fill="#ff00ff" fill-opacity="1"><g transform="translate(93.291554, 75.288116)"><g><path d="M 1.609375 0.65625 C 1.410156 0.375 1.269531 0.0859375 1.1875 -0.203125 C 1.113281 -0.503906 1.078125 -0.8125 1.078125 -1.125 L 1.078125 -1.25 C 1.078125 -1.25 1.078125 -1.289062 1.078125 -1.375 C 1.148438 -2.40625 1.503906 -3.097656 2.140625 -3.453125 C 2.578125 -3.734375 3.210938 -3.875 4.046875 -3.875 C 4.878906 -3.875 5.4375 -3.972656 5.71875 -4.171875 C 6 -4.367188 6.160156 -4.609375 6.203125 -4.890625 C 6.316406 -5.398438 6.394531 -6.09375 6.4375 -6.96875 L 6.4375 -30.5625 C 6.394531 -31.476562 6.316406 -32.175781 6.203125 -32.65625 C 6.160156 -32.925781 6 -33.160156 5.71875 -33.359375 C 5.601562 -33.441406 5.40625 -33.519531 5.125 -33.59375 C 4.84375 -33.675781 4.484375 -33.71875 4.046875 -33.71875 L 3.6875 -33.71875 C 3.53125 -33.71875 3.390625 -33.726562 3.265625 -33.75 C 3.148438 -33.769531 3.003906 -33.789062 2.828125 -33.8125 C 2.648438 -33.832031 2.476562 -33.878906 2.3125 -33.953125 C 2.15625 -34.035156 2.019531 -34.15625 1.90625 -34.3125 C 1.820312 -34.351562 1.738281 -34.410156 1.65625 -34.484375 C 1.582031 -34.566406 1.523438 -34.640625 1.484375 -34.703125 C 1.453125 -34.765625 1.414062 -34.832031 1.375 -34.90625 C 1.332031 -34.988281 1.300781 -35.054688 1.28125 -35.109375 C 1.257812 -35.171875 1.238281 -35.253906 1.21875 -35.359375 C 1.195312 -35.460938 1.175781 -35.53125 1.15625 -35.5625 C 1.132812 -35.601562 1.125 -35.671875 1.125 -35.765625 C 1.125 -35.867188 1.113281 -35.941406 1.09375 -35.984375 C 1.082031 -36.023438 1.078125 -36.082031 1.078125 -36.15625 C 1.078125 -36.238281 1.078125 -36.300781 1.078125 -36.34375 L 1.078125 -36.46875 C 1.109375 -37.132812 1.285156 -37.726562 1.609375 -38.25 C 1.765625 -38.445312 1.953125 -38.625 2.171875 -38.78125 C 2.390625 -38.945312 2.628906 -39.066406 2.890625 -39.140625 C 3.148438 -39.222656 3.398438 -39.265625 3.640625 -39.265625 L 3.6875 -39.265625 C 4.957031 -39.179688 6.175781 -39.128906 7.34375 -39.109375 C 8.519531 -39.085938 9.644531 -39.078125 10.71875 -39.078125 L 20.96875 -39.078125 C 24.269531 -39.046875 27.03125 -38.507812 29.25 -37.46875 C 29.6875 -37.269531 30.101562 -37.0625 30.5 -36.84375 C 30.894531 -36.625 31.28125 -36.375 31.65625 -36.09375 C 32.039062 -35.820312 32.390625 -35.546875 32.703125 -35.265625 C 33.023438 -34.992188 33.320312 -34.695312 33.59375 -34.375 C 33.875 -34.0625 34.132812 -33.722656 34.375 -33.359375 C 35.488281 -31.648438 36.046875 -29.820312 36.046875 -27.875 C 36.046875 -26.601562 35.785156 -25.375 35.265625 -24.1875 C 34.753906 -23 34.019531 -21.890625 33.0625 -20.859375 C 32.664062 -20.453125 32.238281 -20.0625 31.78125 -19.6875 C 31.320312 -19.3125 30.84375 -18.960938 30.34375 -18.640625 C 29.851562 -18.328125 29.347656 -18.039062 28.828125 -17.78125 C 28.316406 -17.519531 27.765625 -17.289062 27.171875 -17.09375 C 28.835938 -14.394531 30.328125 -12.113281 31.640625 -10.25 C 32.953125 -8.414062 34.359375 -6.6875 35.859375 -5.0625 C 36.296875 -4.707031 36.734375 -4.4375 37.171875 -4.25 C 37.609375 -4.070312 38.066406 -3.945312 38.546875 -3.875 C 38.660156 -3.875 38.835938 -3.851562 39.078125 -3.8125 C 39.753906 -3.769531 40.3125 -3.507812 40.75 -3.03125 C 40.988281 -2.757812 41.15625 -2.460938 41.25 -2.140625 C 41.351562 -1.828125 41.40625 -1.488281 41.40625 -1.125 C 41.40625 -0.457031 41.226562 0.132812 40.875 0.65625 C 40.789062 0.738281 40.707031 0.816406 40.625 0.890625 C 40.550781 0.972656 40.472656 1.050781 40.390625 1.125 C 40.316406 1.207031 40.226562 1.28125 40.125 1.34375 C 40.03125 1.40625 39.929688 1.453125 39.828125 1.484375 C 39.722656 1.523438 39.613281 1.554688 39.5 1.578125 C 39.382812 1.597656 39.265625 1.617188 39.140625 1.640625 C 39.023438 1.660156 38.925781 1.671875 38.84375 1.671875 L 37.234375 1.609375 C 35.484375 1.523438 34.234375 1.484375 33.484375 1.484375 L 33.1875 1.484375 C 31.394531 1.085938 29.84375 0.429688 28.53125 -0.484375 C 28.09375 -0.796875 27.664062 -1.148438 27.25 -1.546875 C 26.832031 -1.941406 26.425781 -2.367188 26.03125 -2.828125 C 25.632812 -3.285156 25.238281 -3.773438 24.84375 -4.296875 C 23.65625 -5.835938 22.023438 -8.335938 19.953125 -11.796875 L 18.890625 -13.53125 C 18.765625 -13.6875 18.648438 -13.832031 18.546875 -13.96875 C 18.453125 -14.101562 18.363281 -14.222656 18.28125 -14.328125 C 18.207031 -14.429688 18.128906 -14.519531 18.046875 -14.59375 C 17.972656 -14.675781 17.894531 -14.734375 17.8125 -14.765625 C 17.726562 -14.804688 17.671875 -14.847656 17.640625 -14.890625 C 17.316406 -15.085938 16.617188 -15.1875 15.546875 -15.1875 L 15.3125 -15.1875 L 15.3125 -6.96875 C 15.351562 -6.488281 15.382812 -6.082031 15.40625 -5.75 C 15.425781 -5.414062 15.472656 -5.128906 15.546875 -4.890625 C 15.585938 -4.765625 15.632812 -4.640625 15.6875 -4.515625 C 15.75 -4.398438 15.863281 -4.285156 16.03125 -4.171875 C 16.300781 -3.972656 16.851562 -3.875 17.6875 -3.875 L 18.046875 -3.875 C 18.367188 -3.875 18.664062 -3.832031 18.9375 -3.75 C 19.21875 -3.675781 19.5 -3.539062 19.78125 -3.34375 C 20.289062 -2.9375 20.585938 -2.238281 20.671875 -1.25 L 20.671875 -1.125 C 20.671875 -0.457031 20.492188 0.132812 20.140625 0.65625 C 19.984375 0.851562 19.796875 1.03125 19.578125 1.1875 C 19.359375 1.351562 19.117188 1.472656 18.859375 1.546875 C 18.597656 1.628906 18.347656 1.671875 18.109375 1.671875 L 18.046875 1.671875 C 15.503906 1.546875 13.046875 1.484375 10.671875 1.484375 C 8.597656 1.484375 6.269531 1.546875 3.6875 1.671875 L 3.640625 1.671875 C 2.765625 1.671875 2.085938 1.332031 1.609375 0.65625 Z M 19.0625 -20.5 C 21.6875 -20.5 23.570312 -21.035156 24.71875 -22.109375 C 25.875 -23.179688 26.453125 -24.925781 26.453125 -27.34375 C 26.453125 -29.207031 25.828125 -30.765625 24.578125 -32.015625 C 23.328125 -33.273438 21.132812 -33.90625 18 -33.90625 C 17.082031 -33.90625 16.425781 -33.804688 16.03125 -33.609375 C 15.789062 -33.523438 15.628906 -33.34375 15.546875 -33.0625 C 15.472656 -32.863281 15.414062 -32.523438 15.375 -32.046875 C 15.332031 -31.578125 15.3125 -31.039062 15.3125 -30.4375 L 15.3125 -20.5 Z M 19.0625 -20.5 "/></g></g></g><g fill="#ff00ff" fill-opacity="1"><g transform="translate(133.26394, 75.288116)"><g><path d="M 7.984375 0.0625 C 5.679688 -1.332031 3.929688 -3.257812 2.734375 -5.71875 C 1.546875 -8.101562 0.953125 -10.742188 0.953125 -13.640625 C 0.953125 -16.222656 1.546875 -18.707031 2.734375 -21.09375 C 3.972656 -23.476562 5.703125 -25.421875 7.921875 -26.921875 C 10.179688 -28.429688 12.785156 -29.1875 15.734375 -29.1875 C 19.660156 -29.1875 22.71875 -28.15625 24.90625 -26.09375 C 27.09375 -24.03125 28.34375 -21.269531 28.65625 -17.8125 L 28.65625 -17.6875 C 28.65625 -15.863281 28.078125 -14.554688 26.921875 -13.765625 C 25.972656 -13.128906 24.664062 -12.8125 23 -12.8125 L 10.0625 -12.8125 C 10.226562 -10.113281 10.882812 -7.96875 12.03125 -6.375 C 13.257812 -4.625 15.226562 -3.75 17.9375 -3.75 C 18.207031 -3.75 18.484375 -3.757812 18.765625 -3.78125 C 19.046875 -3.800781 19.3125 -3.835938 19.5625 -3.890625 C 19.820312 -3.953125 20.0625 -4.015625 20.28125 -4.078125 C 20.5 -4.140625 20.707031 -4.21875 20.90625 -4.3125 C 21.101562 -4.414062 21.300781 -4.523438 21.5 -4.640625 C 22.5 -5.242188 23.472656 -6.316406 24.421875 -7.859375 L 24.484375 -8.046875 L 24.609375 -8.15625 C 24.847656 -8.351562 25.101562 -8.519531 25.375 -8.65625 C 25.65625 -8.800781 25.957031 -8.875 26.28125 -8.875 C 26.394531 -8.875 26.53125 -8.851562 26.6875 -8.8125 C 26.84375 -8.78125 26.988281 -8.742188 27.125 -8.703125 C 27.269531 -8.660156 27.398438 -8.609375 27.515625 -8.546875 C 27.640625 -8.484375 27.742188 -8.4375 27.828125 -8.40625 C 28.660156 -7.84375 29.078125 -7.066406 29.078125 -6.078125 C 29.078125 -5.835938 29.046875 -5.609375 28.984375 -5.390625 C 28.921875 -5.171875 28.832031 -4.941406 28.71875 -4.703125 C 28.039062 -3.671875 27.265625 -2.71875 26.390625 -1.84375 C 25.515625 -0.96875 24.5625 -0.234375 23.53125 0.359375 C 21.425781 1.585938 19.046875 2.203125 16.390625 2.203125 C 13.128906 2.203125 10.328125 1.488281 7.984375 0.0625 Z M 18.234375 -18.046875 C 18.941406 -18.046875 19.394531 -18.125 19.59375 -18.28125 C 19.800781 -18.445312 19.921875 -18.726562 19.953125 -19.125 C 19.953125 -19.363281 19.941406 -19.582031 19.921875 -19.78125 C 19.910156 -19.976562 19.882812 -20.175781 19.84375 -20.375 C 19.800781 -20.570312 19.757812 -20.757812 19.71875 -20.9375 C 19.675781 -21.113281 19.625 -21.28125 19.5625 -21.4375 C 19.507812 -21.601562 19.441406 -21.765625 19.359375 -21.921875 C 19.285156 -22.078125 19.195312 -22.222656 19.09375 -22.359375 C 19 -22.503906 18.890625 -22.65625 18.765625 -22.8125 C 18.410156 -23.25 17.992188 -23.578125 17.515625 -23.796875 C 17.035156 -24.015625 16.441406 -24.125 15.734375 -24.125 C 14.179688 -24.125 12.890625 -23.507812 11.859375 -22.28125 C 11.023438 -21.207031 10.46875 -19.796875 10.1875 -18.046875 Z M 18.234375 -18.046875 "/></g></g></g><g fill="#ff00ff" fill-opacity="1"><g transform="translate(163.168764, 75.288116)"><g><path d="M 1.546875 0.65625 C 1.347656 0.375 1.207031 0.0859375 1.125 -0.203125 C 1.050781 -0.503906 1.015625 -0.8125 1.015625 -1.125 L 1.015625 -1.25 C 1.015625 -1.25 1.015625 -1.289062 1.015625 -1.375 C 1.085938 -2.40625 1.441406 -3.097656 2.078125 -3.453125 C 2.515625 -3.734375 3.148438 -3.875 3.984375 -3.875 C 4.828125 -3.875 5.382812 -3.972656 5.65625 -4.171875 C 5.9375 -4.367188 6.097656 -4.609375 6.140625 -4.890625 C 6.253906 -5.398438 6.332031 -6.09375 6.375 -6.96875 L 6.375 -30.625 C 6.332031 -31.5 6.253906 -32.191406 6.140625 -32.703125 C 6.097656 -32.828125 6.046875 -32.945312 5.984375 -33.0625 C 5.921875 -33.1875 5.8125 -33.285156 5.65625 -33.359375 C 5.382812 -33.597656 4.828125 -33.71875 3.984375 -33.71875 L 3.640625 -33.71875 C 3.472656 -33.71875 3.328125 -33.726562 3.203125 -33.75 C 3.085938 -33.769531 2.941406 -33.789062 2.765625 -33.8125 C 2.585938 -33.832031 2.421875 -33.878906 2.265625 -33.953125 C 2.109375 -34.035156 1.96875 -34.15625 1.84375 -34.3125 C 1.726562 -34.394531 1.640625 -34.460938 1.578125 -34.515625 C 1.515625 -34.578125 1.453125 -34.65625 1.390625 -34.75 C 1.335938 -34.851562 1.289062 -34.9375 1.25 -35 C 1.207031 -35.0625 1.175781 -35.140625 1.15625 -35.234375 C 1.132812 -35.335938 1.113281 -35.414062 1.09375 -35.46875 C 1.082031 -35.53125 1.078125 -35.609375 1.078125 -35.703125 C 1.078125 -35.804688 1.066406 -35.878906 1.046875 -35.921875 C 1.023438 -35.960938 1.015625 -36.039062 1.015625 -36.15625 C 1.015625 -36.28125 1.015625 -36.34375 1.015625 -36.34375 L 1.015625 -36.46875 C 1.015625 -36.625 1.023438 -36.78125 1.046875 -36.9375 C 1.066406 -37.09375 1.09375 -37.238281 1.125 -37.375 C 1.164062 -37.519531 1.226562 -37.660156 1.3125 -37.796875 C 1.394531 -37.941406 1.472656 -38.09375 1.546875 -38.25 C 1.703125 -38.445312 1.890625 -38.625 2.109375 -38.78125 C 2.328125 -38.945312 2.566406 -39.066406 2.828125 -39.140625 C 3.085938 -39.222656 3.335938 -39.265625 3.578125 -39.265625 L 3.640625 -39.265625 C 4.910156 -39.179688 6.128906 -39.128906 7.296875 -39.109375 C 8.472656 -39.085938 9.578125 -39.078125 10.609375 -39.078125 L 19 -39.078125 C 19.5625 -39.078125 20.097656 -39.066406 20.609375 -39.046875 C 21.128906 -39.035156 21.625 -39.007812 22.09375 -38.96875 C 22.570312 -38.925781 23.019531 -38.875 23.4375 -38.8125 C 23.851562 -38.75 24.265625 -38.660156 24.671875 -38.546875 C 26.171875 -38.191406 27.539062 -37.632812 28.78125 -36.875 C 29.375 -36.476562 29.914062 -35.992188 30.40625 -35.421875 C 30.90625 -34.847656 31.335938 -34.222656 31.703125 -33.546875 C 32.410156 -32.148438 32.765625 -30.640625 32.765625 -29.015625 C 32.765625 -27.585938 32.515625 -26.285156 32.015625 -25.109375 C 31.523438 -23.941406 30.800781 -22.921875 29.84375 -22.046875 C 29.332031 -21.566406 28.757812 -21.128906 28.125 -20.734375 C 28.632812 -20.535156 29.085938 -20.335938 29.484375 -20.140625 C 31.429688 -19.222656 32.941406 -17.972656 34.015625 -16.390625 C 34.578125 -15.554688 34.992188 -14.703125 35.265625 -13.828125 C 35.546875 -12.953125 35.6875 -12.035156 35.6875 -11.078125 C 35.6875 -10.484375 35.644531 -9.894531 35.5625 -9.3125 C 35.488281 -8.738281 35.367188 -8.179688 35.203125 -7.640625 C 35.046875 -7.109375 34.859375 -6.601562 34.640625 -6.125 C 34.421875 -5.65625 34.148438 -5.191406 33.828125 -4.734375 C 33.515625 -4.273438 33.160156 -3.847656 32.765625 -3.453125 C 30.941406 -1.628906 28.660156 -0.316406 25.921875 0.484375 C 23.296875 1.191406 20.59375 1.546875 17.8125 1.546875 L 10.671875 1.484375 C 8.554688 1.484375 6.210938 1.546875 3.640625 1.671875 L 3.578125 1.671875 C 2.703125 1.671875 2.023438 1.332031 1.546875 0.65625 Z M 16.265625 -22.703125 C 17.734375 -22.703125 19.023438 -22.800781 20.140625 -23 C 20.972656 -23.195312 21.726562 -23.691406 22.40625 -24.484375 C 23.082031 -25.203125 23.421875 -26.472656 23.421875 -28.296875 C 23.421875 -30.328125 23 -31.769531 22.15625 -32.625 C 21.320312 -33.476562 19.914062 -33.90625 17.9375 -33.90625 L 15.25 -33.90625 L 15.25 -22.703125 Z M 24.1875 -5.65625 C 25.539062 -6.769531 26.238281 -8.675781 26.28125 -11.375 C 26.070312 -13.039062 25.253906 -14.429688 23.828125 -15.546875 C 22.273438 -16.742188 19.734375 -17.34375 16.203125 -17.34375 L 15.25 -17.34375 L 15.25 -6.96875 C 15.25 -5.820312 15.347656 -5.007812 15.546875 -4.53125 C 15.671875 -4.25 15.789062 -4.085938 15.90625 -4.046875 C 16.03125 -4.003906 16.179688 -3.960938 16.359375 -3.921875 C 16.535156 -3.890625 16.769531 -3.863281 17.0625 -3.84375 C 17.363281 -3.820312 17.691406 -3.8125 18.046875 -3.8125 C 20.628906 -3.851562 22.675781 -4.46875 24.1875 -5.65625 Z M 24.1875 -5.65625 "/></g></g></g><g fill="#ff00ff" fill-opacity="1"><g transform="translate(200.162578, 75.288116)"><g><path d="M 7.984375 0.0625 C 5.679688 -1.332031 3.929688 -3.257812 2.734375 -5.71875 C 1.546875 -8.101562 0.953125 -10.742188 0.953125 -13.640625 C 0.953125 -16.222656 1.546875 -18.707031 2.734375 -21.09375 C 3.972656 -23.476562 5.703125 -25.421875 7.921875 -26.921875 C 10.179688 -28.429688 12.785156 -29.1875 15.734375 -29.1875 C 19.660156 -29.1875 22.71875 -28.15625 24.90625 -26.09375 C 27.09375 -24.03125 28.34375 -21.269531 28.65625 -17.8125 L 28.65625 -17.6875 C 28.65625 -15.863281 28.078125 -14.554688 26.921875 -13.765625 C 25.972656 -13.128906 24.664062 -12.8125 23 -12.8125 L 10.0625 -12.8125 C 10.226562 -10.113281 10.882812 -7.96875 12.03125 -6.375 C 13.257812 -4.625 15.226562 -3.75 17.9375 -3.75 C 18.207031 -3.75 18.484375 -3.757812 18.765625 -3.78125 C 19.046875 -3.800781 19.3125 -3.835938 19.5625 -3.890625 C 19.820312 -3.953125 20.0625 -4.015625 20.28125 -4.078125 C 20.5 -4.140625 20.707031 -4.21875 20.90625 -4.3125 C 21.101562 -4.414062 21.300781 -4.523438 21.5 -4.640625 C 22.5 -5.242188 23.472656 -6.316406 24.421875 -7.859375 L 24.484375 -8.046875 L 24.609375 -8.15625 C 24.847656 -8.351562 25.101562 -8.519531 25.375 -8.65625 C 25.65625 -8.800781 25.957031 -8.875 26.28125 -8.875 C 26.394531 -8.875 26.53125 -8.851562 26.6875 -8.8125 C 26.84375 -8.78125 26.988281 -8.742188 27.125 -8.703125 C 27.269531 -8.660156 27.398438 -8.609375 27.515625 -8.546875 C 27.640625 -8.484375 27.742188 -8.4375 27.828125 -8.40625 C 28.660156 -7.84375 29.078125 -7.066406 29.078125 -6.078125 C 29.078125 -5.835938 29.046875 -5.609375 28.984375 -5.390625 C 28.921875 -5.171875 28.832031 -4.941406 28.71875 -4.703125 C 28.039062 -3.671875 27.265625 -2.71875 26.390625 -1.84375 C 25.515625 -0.96875 24.5625 -0.234375 23.53125 0.359375 C 21.425781 1.585938 19.046875 2.203125 16.390625 2.203125 C 13.128906 2.203125 10.328125 1.488281 7.984375 0.0625 Z M 18.234375 -18.046875 C 18.941406 -18.046875 19.394531 -18.125 19.59375 -18.28125 C 19.800781 -18.445312 19.921875 -18.726562 19.953125 -19.125 C 19.953125 -19.363281 19.941406 -19.582031 19.921875 -19.78125 C 19.910156 -19.976562 19.882812 -20.175781 19.84375 -20.375 C 19.800781 -20.570312 19.757812 -20.757812 19.71875 -20.9375 C 19.675781 -21.113281 19.625 -21.28125 19.5625 -21.4375 C 19.507812 -21.601562 19.441406 -21.765625 19.359375 -21.921875 C 19.285156 -22.078125 19.195312 -22.222656 19.09375 -22.359375 C 19 -22.503906 18.890625 -22.65625 18.765625 -22.8125 C 18.410156 -23.25 17.992188 -23.578125 17.515625 -23.796875 C 17.035156 -24.015625 16.441406 -24.125 15.734375 -24.125 C 14.179688 -24.125 12.890625 -23.507812 11.859375 -22.28125 C 11.023438 -21.207031 10.46875 -19.796875 10.1875 -18.046875 Z M 18.234375 -18.046875 "/></g></g></g><g fill="#ff00ff" fill-opacity="1"><g transform="translate(230.067402, 75.288116)"><g><path d="M 4.53125 0.359375 C 2.03125 -1.035156 0.78125 -3.039062 0.78125 -5.65625 C 0.78125 -7.207031 1.273438 -8.476562 2.265625 -9.46875 C 2.742188 -9.988281 3.304688 -10.375 3.953125 -10.625 C 4.609375 -10.882812 5.296875 -11.015625 6.015625 -11.015625 C 6.253906 -11.015625 6.484375 -10.992188 6.703125 -10.953125 C 6.921875 -10.921875 7.140625 -10.875 7.359375 -10.8125 C 7.578125 -10.75 7.785156 -10.664062 7.984375 -10.5625 C 8.179688 -10.46875 8.378906 -10.34375 8.578125 -10.1875 C 8.617188 -10.1875 8.707031 -10.132812 8.84375 -10.03125 C 8.988281 -9.9375 9.085938 -9.859375 9.140625 -9.796875 C 9.203125 -9.742188 9.289062 -9.65625 9.40625 -9.53125 C 9.53125 -9.414062 9.617188 -9.296875 9.671875 -9.171875 C 9.734375 -9.054688 9.796875 -8.90625 9.859375 -8.71875 C 9.921875 -8.539062 9.953125 -8.351562 9.953125 -8.15625 C 9.953125 -7.800781 9.910156 -7.503906 9.828125 -7.265625 C 9.753906 -7.023438 9.664062 -6.875 9.5625 -6.8125 C 9.457031 -6.757812 9.328125 -6.679688 9.171875 -6.578125 C 9.015625 -6.484375 8.914062 -6.414062 8.875 -6.375 C 8.675781 -6.175781 8.578125 -5.835938 8.578125 -5.359375 C 8.578125 -4.722656 8.894531 -4.207031 9.53125 -3.8125 C 10.363281 -3.257812 11.675781 -2.984375 13.46875 -2.984375 C 14.976562 -2.984375 16.128906 -3.28125 16.921875 -3.875 C 17.597656 -4.382812 17.9375 -5.140625 17.9375 -6.140625 C 17.9375 -6.453125 17.894531 -6.71875 17.8125 -6.9375 C 17.726562 -7.15625 17.609375 -7.363281 17.453125 -7.5625 C 17.210938 -7.800781 16.953125 -8.007812 16.671875 -8.1875 C 16.398438 -8.363281 16.085938 -8.535156 15.734375 -8.703125 C 15.335938 -8.859375 14.828125 -9.035156 14.203125 -9.234375 C 13.585938 -9.429688 12.90625 -9.648438 12.15625 -9.890625 C 11.164062 -10.171875 10.25 -10.457031 9.40625 -10.75 C 8.570312 -11.050781 7.835938 -11.34375 7.203125 -11.625 C 6.453125 -11.9375 5.769531 -12.335938 5.15625 -12.828125 C 4.539062 -13.328125 3.972656 -13.914062 3.453125 -14.59375 C 2.378906 -15.945312 1.84375 -17.695312 1.84375 -19.84375 C 1.84375 -21.863281 2.476562 -23.609375 3.75 -25.078125 C 4.34375 -25.796875 5.023438 -26.410156 5.796875 -26.921875 C 6.578125 -27.441406 7.445312 -27.878906 8.40625 -28.234375 C 9 -28.429688 9.601562 -28.597656 10.21875 -28.734375 C 10.832031 -28.878906 11.457031 -28.992188 12.09375 -29.078125 C 12.769531 -29.148438 13.445312 -29.1875 14.125 -29.1875 C 16.738281 -29.1875 19.019531 -28.632812 20.96875 -27.53125 C 23.195312 -26.21875 24.3125 -24.390625 24.3125 -22.046875 C 24.3125 -20.617188 23.851562 -19.382812 22.9375 -18.34375 C 21.976562 -17.238281 20.75 -16.6875 19.25 -16.6875 C 18.289062 -16.6875 17.4375 -16.960938 16.6875 -17.515625 C 16.644531 -17.515625 16.550781 -17.5625 16.40625 -17.65625 C 16.269531 -17.757812 16.171875 -17.84375 16.109375 -17.90625 C 16.054688 -17.96875 15.96875 -18.054688 15.84375 -18.171875 C 15.726562 -18.285156 15.640625 -18.398438 15.578125 -18.515625 C 15.515625 -18.640625 15.453125 -18.789062 15.390625 -18.96875 C 15.335938 -19.15625 15.3125 -19.347656 15.3125 -19.546875 C 15.3125 -19.898438 15.359375 -20.195312 15.453125 -20.4375 C 15.554688 -20.675781 15.65625 -20.820312 15.75 -20.875 C 15.851562 -20.9375 15.960938 -20.988281 16.078125 -21.03125 C 16.203125 -21.070312 16.285156 -21.113281 16.328125 -21.15625 C 16.523438 -21.351562 16.722656 -21.585938 16.921875 -21.859375 C 17.003906 -21.941406 17.046875 -22.082031 17.046875 -22.28125 C 17.003906 -22.832031 16.703125 -23.269531 16.140625 -23.59375 C 15.390625 -24.03125 14.476562 -24.25 13.40625 -24.25 L 12.6875 -24.1875 C 12.207031 -24.144531 11.769531 -24.0625 11.375 -23.9375 C 10.976562 -23.820312 10.601562 -23.648438 10.25 -23.421875 C 9.570312 -23.015625 9.234375 -22.476562 9.234375 -21.8125 C 9.234375 -21.375 9.269531 -21.015625 9.34375 -20.734375 C 9.425781 -20.453125 9.53125 -20.210938 9.65625 -20.015625 C 9.769531 -19.898438 9.882812 -19.78125 10 -19.65625 C 10.125 -19.539062 10.285156 -19.421875 10.484375 -19.296875 C 10.679688 -19.179688 10.921875 -19.066406 11.203125 -18.953125 C 11.640625 -18.742188 12.222656 -18.507812 12.953125 -18.25 C 13.691406 -18 14.578125 -17.710938 15.609375 -17.390625 C 16.128906 -17.191406 16.625 -17.015625 17.09375 -16.859375 C 17.570312 -16.703125 18.03125 -16.539062 18.46875 -16.375 C 18.90625 -16.21875 19.3125 -16.0625 19.6875 -15.90625 C 20.0625 -15.75 20.410156 -15.59375 20.734375 -15.4375 C 22.160156 -14.757812 23.289062 -13.820312 24.125 -12.625 C 25 -11.394531 25.4375 -9.828125 25.4375 -7.921875 C 25.4375 -6.972656 25.285156 -6.050781 24.984375 -5.15625 C 24.691406 -4.257812 24.269531 -3.414062 23.71875 -2.625 C 23.15625 -1.832031 22.492188 -1.132812 21.734375 -0.53125 C 20.984375 0.0625 20.132812 0.554688 19.1875 0.953125 C 17.789062 1.585938 16.257812 1.984375 14.59375 2.140625 C 14.082031 2.179688 13.546875 2.203125 12.984375 2.203125 C 9.535156 2.203125 6.71875 1.585938 4.53125 0.359375 Z M 4.53125 0.359375 "/></g></g></g><g fill="#ff00ff" fill-opacity="1"><g transform="translate(256.457522, 75.288116)"><g><path d="M 6.796875 -0.125 C 5.128906 -1.832031 4.296875 -4.210938 4.296875 -7.265625 L 4.296875 -23.234375 L 2.328125 -23.171875 C 2.085938 -23.171875 1.847656 -23.210938 1.609375 -23.296875 C 1.367188 -23.378906 1.160156 -23.488281 0.984375 -23.625 C 0.804688 -23.757812 0.65625 -23.925781 0.53125 -24.125 C 0.414062 -24.289062 0.316406 -24.460938 0.234375 -24.640625 C 0.160156 -24.816406 0.101562 -24.992188 0.0625 -25.171875 C 0.0195312 -25.347656 0 -25.535156 0 -25.734375 C 0 -26.328125 0.117188 -26.863281 0.359375 -27.34375 C 0.710938 -28.019531 1.269531 -28.4375 2.03125 -28.59375 C 3.175781 -28.832031 4.046875 -29.171875 4.640625 -29.609375 C 5.242188 -30.085938 5.679688 -30.582031 5.953125 -31.09375 C 6.035156 -31.332031 6.132812 -31.597656 6.25 -31.890625 C 6.375 -32.191406 6.515625 -32.550781 6.671875 -32.96875 C 6.828125 -33.394531 6.988281 -33.863281 7.15625 -34.375 C 7.3125 -34.726562 7.535156 -35.046875 7.828125 -35.328125 C 8.128906 -35.609375 8.457031 -35.804688 8.8125 -35.921875 C 9.175781 -36.046875 9.535156 -36.109375 9.890625 -36.109375 C 10.410156 -36.109375 10.90625 -35.988281 11.375 -35.75 C 12.207031 -35.3125 12.625 -34.65625 12.625 -33.78125 L 12.625 -33.65625 L 12.328125 -28.59375 L 17.640625 -28.890625 L 17.8125 -28.890625 C 18.570312 -28.890625 19.140625 -28.613281 19.515625 -28.0625 C 19.890625 -27.507812 20.078125 -26.914062 20.078125 -26.28125 C 20.078125 -25.675781 19.976562 -25.097656 19.78125 -24.546875 C 19.382812 -23.515625 18.75 -23 17.875 -23 L 12.6875 -23.109375 L 12.6875 -6.546875 C 12.6875 -5.515625 12.882812 -4.679688 13.28125 -4.046875 C 13.519531 -3.648438 13.976562 -3.453125 14.65625 -3.453125 C 15.175781 -3.453125 15.648438 -3.488281 16.078125 -3.5625 C 16.515625 -3.644531 16.9375 -3.785156 17.34375 -3.984375 L 17.390625 -3.984375 C 18.066406 -4.265625 18.566406 -4.40625 18.890625 -4.40625 C 19.242188 -4.40625 19.585938 -4.316406 19.921875 -4.140625 C 20.265625 -3.960938 20.535156 -3.734375 20.734375 -3.453125 C 20.972656 -3.171875 21.191406 -2.796875 21.390625 -2.328125 C 21.390625 -2.328125 21.445312 -2.03125 21.5625 -1.4375 C 21.5625 -0.800781 21.265625 -0.242188 20.671875 0.234375 L 20.546875 0.359375 C 19.242188 1.191406 18.015625 1.765625 16.859375 2.078125 C 15.710938 2.359375 14.382812 2.5 12.875 2.5 C 10.488281 2.5 8.460938 1.625 6.796875 -0.125 Z M 6.796875 -0.125 "/></g></g></g><g fill="#ff00ff" fill-opacity="1"><g transform="translate(279.035075, 75.288116)"><g><path d="M 1.609375 0.65625 C 1.410156 0.375 1.269531 0.0859375 1.1875 -0.203125 C 1.113281 -0.503906 1.078125 -0.8125 1.078125 -1.125 L 1.078125 -1.25 C 1.078125 -1.25 1.078125 -1.289062 1.078125 -1.375 C 1.148438 -2.40625 1.503906 -3.097656 2.140625 -3.453125 C 2.578125 -3.734375 3.210938 -3.875 4.046875 -3.875 C 4.878906 -3.875 5.4375 -3.972656 5.71875 -4.171875 C 6 -4.367188 6.160156 -4.609375 6.203125 -4.890625 C 6.316406 -5.398438 6.394531 -6.09375 6.4375 -6.96875 L 6.4375 -30.625 C 6.394531 -31.5 6.316406 -32.191406 6.203125 -32.703125 C 6.203125 -32.785156 6.179688 -32.863281 6.140625 -32.9375 C 6.097656 -33.019531 6.046875 -33.097656 5.984375 -33.171875 C 5.921875 -33.253906 5.832031 -33.316406 5.71875 -33.359375 C 5.4375 -33.597656 4.878906 -33.71875 4.046875 -33.71875 L 3.6875 -33.71875 C 3.53125 -33.71875 3.390625 -33.726562 3.265625 -33.75 C 3.148438 -33.769531 3.003906 -33.789062 2.828125 -33.8125 C 2.648438 -33.832031 2.476562 -33.878906 2.3125 -33.953125 C 2.15625 -34.035156 2.019531 -34.15625 1.90625 -34.3125 C 1.820312 -34.351562 1.738281 -34.410156 1.65625 -34.484375 C 1.582031 -34.566406 1.523438 -34.640625 1.484375 -34.703125 C 1.453125 -34.765625 1.414062 -34.832031 1.375 -34.90625 C 1.332031 -34.988281 1.300781 -35.054688 1.28125 -35.109375 C 1.257812 -35.171875 1.238281 -35.253906 1.21875 -35.359375 C 1.195312 -35.460938 1.175781 -35.53125 1.15625 -35.5625 C 1.132812 -35.601562 1.125 -35.671875 1.125 -35.765625 C 1.125 -35.867188 1.113281 -35.941406 1.09375 -35.984375 C 1.082031 -36.023438 1.078125 -36.082031 1.078125 -36.15625 C 1.078125 -36.238281 1.078125 -36.300781 1.078125 -36.34375 L 1.078125 -36.46875 C 1.109375 -37.132812 1.285156 -37.726562 1.609375 -38.25 C 1.804688 -38.5625 2.082031 -38.804688 2.4375 -38.984375 C 2.800781 -39.171875 3.179688 -39.265625 3.578125 -39.265625 L 3.640625 -39.265625 C 6.253906 -39.140625 8.597656 -39.078125 10.671875 -39.078125 L 19.953125 -39.078125 C 24.003906 -39.078125 27.703125 -38.265625 31.046875 -36.640625 C 34.378906 -34.972656 37.023438 -32.585938 38.984375 -29.484375 C 40.953125 -26.390625 41.9375 -22.757812 41.9375 -18.59375 C 41.9375 -14.21875 40.828125 -10.503906 38.609375 -7.453125 C 37.492188 -5.941406 36.210938 -4.617188 34.765625 -3.484375 C 33.316406 -2.347656 31.71875 -1.40625 29.96875 -0.65625 C 26.507812 0.769531 22.816406 1.484375 18.890625 1.484375 L 10.671875 1.484375 C 10.304688 1.484375 9.945312 1.484375 9.59375 1.484375 C 9.238281 1.484375 8.867188 1.484375 8.484375 1.484375 C 8.109375 1.484375 7.734375 1.492188 7.359375 1.515625 C 6.984375 1.535156 6.585938 1.554688 6.171875 1.578125 C 5.753906 1.597656 5.335938 1.609375 4.921875 1.609375 C 4.503906 1.609375 4.078125 1.628906 3.640625 1.671875 L 3.578125 1.671875 C 2.742188 1.671875 2.085938 1.332031 1.609375 0.65625 Z M 28.828125 -7.453125 C 30.773438 -10.023438 31.75 -13.738281 31.75 -18.59375 C 31.75 -21.644531 31.210938 -24.34375 30.140625 -26.6875 C 29.585938 -27.84375 28.929688 -28.863281 28.171875 -29.75 C 27.421875 -30.644531 26.550781 -31.410156 25.5625 -32.046875 C 23.613281 -33.316406 21.25 -33.953125 18.46875 -33.953125 L 15.3125 -33.90625 L 15.3125 -6.25 C 15.3125 -5.257812 15.550781 -4.625 16.03125 -4.34375 C 16.707031 -3.90625 17.957031 -3.6875 19.78125 -3.6875 C 23.945312 -3.6875 26.960938 -4.941406 28.828125 -7.453125 Z M 28.828125 -7.453125 "/></g></g></g><g fill="#ff00ff" fill-opacity="1"><g transform="translate(322.403019, 75.288116)"><g><path d="M 1.078125 0.71875 C 0.679688 0.195312 0.484375 -0.378906 0.484375 -1.015625 L 0.484375 -1.125 C 0.484375 -1.125 0.484375 -1.144531 0.484375 -1.1875 C 0.554688 -2.21875 0.953125 -2.914062 1.671875 -3.28125 C 2.066406 -3.476562 2.640625 -3.578125 3.390625 -3.578125 C 4.066406 -3.578125 4.484375 -3.632812 4.640625 -3.75 C 4.765625 -3.875 4.847656 -3.972656 4.890625 -4.046875 C 4.921875 -4.484375 4.9375 -5.179688 4.9375 -6.140625 L 4.9375 -19.78125 C 4.9375 -20.726562 4.921875 -21.421875 4.890625 -21.859375 C 4.847656 -21.941406 4.765625 -22.039062 4.640625 -22.15625 C 4.484375 -22.28125 4.066406 -22.34375 3.390625 -22.34375 C 2.640625 -22.34375 2.023438 -22.484375 1.546875 -22.765625 C 0.835938 -23.203125 0.484375 -23.953125 0.484375 -25.015625 C 0.484375 -25.578125 0.660156 -26.097656 1.015625 -26.578125 C 1.210938 -26.847656 1.46875 -27.070312 1.78125 -27.25 C 2.101562 -27.4375 2.421875 -27.546875 2.734375 -27.578125 C 5.117188 -27.898438 7.144531 -28.378906 8.8125 -29.015625 C 9.175781 -29.171875 9.492188 -29.28125 9.765625 -29.34375 C 10.046875 -29.40625 10.304688 -29.453125 10.546875 -29.484375 L 10.90625 -29.484375 C 11.613281 -29.484375 12.195312 -29.210938 12.65625 -28.671875 C 13.113281 -28.140625 13.34375 -27.539062 13.34375 -26.875 L 13.34375 -6.140625 C 13.34375 -5.179688 13.382812 -4.503906 13.46875 -4.109375 C 13.46875 -4.023438 13.546875 -3.90625 13.703125 -3.75 C 13.703125 -3.75 13.738281 -3.738281 13.8125 -3.71875 C 13.894531 -3.695312 14.035156 -3.664062 14.234375 -3.625 C 14.429688 -3.59375 14.671875 -3.578125 14.953125 -3.578125 L 15.3125 -3.578125 C 15.945312 -3.578125 16.484375 -3.414062 16.921875 -3.09375 C 17.429688 -2.695312 17.726562 -2.039062 17.8125 -1.125 L 17.8125 -1.015625 C 17.8125 -0.859375 17.800781 -0.707031 17.78125 -0.5625 C 17.757812 -0.425781 17.726562 -0.285156 17.6875 -0.140625 C 17.65625 -0.00390625 17.609375 0.128906 17.546875 0.265625 C 17.484375 0.410156 17.414062 0.539062 17.34375 0.65625 C 17.175781 0.851562 16.984375 1.03125 16.765625 1.1875 C 16.546875 1.351562 16.316406 1.472656 16.078125 1.546875 C 15.847656 1.628906 15.613281 1.671875 15.375 1.671875 L 15.3125 1.671875 C 13.007812 1.546875 10.941406 1.484375 9.109375 1.484375 C 8.242188 1.484375 7.289062 1.492188 6.25 1.515625 C 5.21875 1.535156 4.128906 1.585938 2.984375 1.671875 L 2.921875 1.671875 C 2.160156 1.671875 1.546875 1.351562 1.078125 0.71875 Z M 5.015625 -34.5625 C 3.941406 -35.550781 3.40625 -36.78125 3.40625 -38.25 C 3.40625 -38.601562 3.453125 -38.945312 3.546875 -39.28125 C 3.648438 -39.625 3.78125 -39.953125 3.9375 -40.265625 C 4.09375 -40.585938 4.289062 -40.878906 4.53125 -41.140625 C 4.769531 -41.398438 5.050781 -41.648438 5.375 -41.890625 C 5.925781 -42.316406 6.546875 -42.648438 7.234375 -42.890625 C 7.929688 -43.128906 8.640625 -43.25 9.359375 -43.25 C 9.796875 -43.25 10.234375 -43.1875 10.671875 -43.0625 C 11.109375 -42.945312 11.515625 -42.78125 11.890625 -42.5625 C 12.265625 -42.34375 12.59375 -42.054688 12.875 -41.703125 C 13.789062 -40.753906 14.25 -39.546875 14.25 -38.078125 C 14.25 -36.679688 13.710938 -35.488281 12.640625 -34.5 C 11.609375 -33.582031 10.335938 -33.125 8.828125 -33.125 C 7.316406 -33.125 6.046875 -33.601562 5.015625 -34.5625 Z M 5.015625 -34.5625 "/></g></g></g><g fill="#ff00ff" fill-opacity="1"><g transform="translate(340.036155, 75.288116)"><g><path d="M 10.421875 1.4375 C 10.503906 1.550781 10.566406 1.644531 10.609375 1.71875 C 10.648438 1.800781 10.695312 1.929688 10.75 2.109375 C 10.8125 2.296875 10.84375 2.46875 10.84375 2.625 C 10.84375 2.976562 10.800781 3.265625 10.71875 3.484375 C 10.644531 3.703125 10.554688 3.835938 10.453125 3.890625 C 10.359375 3.953125 10.25 4.015625 10.125 4.078125 C 10.007812 4.140625 9.929688 4.191406 9.890625 4.234375 C 9.648438 4.472656 9.453125 4.769531 9.296875 5.125 C 9.140625 5.40625 9.0625 5.765625 9.0625 6.203125 C 9.0625 8.265625 11.1875 9.296875 15.4375 9.296875 C 15.75 9.296875 16.050781 9.285156 16.34375 9.265625 C 16.644531 9.242188 16.9375 9.234375 17.21875 9.234375 C 19.082031 9.078125 20.53125 8.660156 21.5625 7.984375 C 22.757812 7.191406 23.359375 6.039062 23.359375 4.53125 C 23.359375 4.375 23.347656 4.222656 23.328125 4.078125 C 23.304688 3.941406 23.273438 3.8125 23.234375 3.6875 C 23.191406 3.570312 23.140625 3.460938 23.078125 3.359375 C 23.023438 3.265625 22.957031 3.1875 22.875 3.125 C 22.800781 3.0625 22.703125 2.992188 22.578125 2.921875 C 22.222656 2.679688 21.796875 2.472656 21.296875 2.296875 C 20.796875 2.117188 20.25 1.988281 19.65625 1.90625 C 19.300781 1.863281 18.925781 1.832031 18.53125 1.8125 C 18.132812 1.789062 17.71875 1.757812 17.28125 1.71875 C 16.84375 1.6875 16.363281 1.660156 15.84375 1.640625 C 15.332031 1.617188 14.773438 1.609375 14.171875 1.609375 C 12.742188 1.566406 11.492188 1.507812 10.421875 1.4375 Z M 4.109375 -0.296875 C 3.953125 -0.421875 3.796875 -0.539062 3.640625 -0.65625 C 2.441406 -1.644531 1.84375 -3.132812 1.84375 -5.125 C 1.84375 -7.113281 2.539062 -8.78125 3.9375 -10.125 C 4.375 -10.519531 4.867188 -10.878906 5.421875 -11.203125 C 5.023438 -11.484375 4.664062 -11.789062 4.34375 -12.125 C 4.03125 -12.457031 3.734375 -12.804688 3.453125 -13.171875 C 2.335938 -14.796875 1.78125 -16.617188 1.78125 -18.640625 C 1.78125 -20.671875 2.359375 -22.5 3.515625 -24.125 C 4.066406 -24.957031 4.738281 -25.691406 5.53125 -26.328125 C 6.332031 -26.960938 7.226562 -27.5 8.21875 -27.9375 C 10.164062 -28.8125 12.351562 -29.25 14.78125 -29.25 C 17.59375 -29.25 19.851562 -28.875 21.5625 -28.125 L 23.953125 -28.59375 L 29.25 -29.609375 L 29.671875 -29.609375 C 30.460938 -29.609375 31.078125 -29.300781 31.515625 -28.6875 C 31.953125 -28.070312 32.171875 -27.40625 32.171875 -26.6875 C 32.171875 -26.488281 32.160156 -26.3125 32.140625 -26.15625 C 32.117188 -26 32.097656 -25.828125 32.078125 -25.640625 C 32.054688 -25.460938 32.015625 -25.285156 31.953125 -25.109375 C 31.898438 -24.929688 31.851562 -24.765625 31.8125 -24.609375 C 31.695312 -24.328125 31.585938 -24.097656 31.484375 -23.921875 C 31.390625 -23.742188 31.179688 -23.535156 30.859375 -23.296875 C 30.546875 -23.054688 30.171875 -22.9375 29.734375 -22.9375 L 26.6875 -23.0625 C 26.8125 -22.863281 26.910156 -22.664062 26.984375 -22.46875 C 27.546875 -21.15625 27.828125 -19.898438 27.828125 -18.703125 C 27.828125 -16.554688 27.207031 -14.648438 25.96875 -12.984375 C 25.332031 -12.148438 24.617188 -11.425781 23.828125 -10.8125 C 23.035156 -10.195312 22.160156 -9.671875 21.203125 -9.234375 C 19.296875 -8.398438 17.3125 -7.984375 15.25 -7.984375 L 12.625 -7.984375 C 11.15625 -7.984375 10.023438 -7.882812 9.234375 -7.6875 C 9.035156 -7.601562 8.859375 -7.539062 8.703125 -7.5 C 8.378906 -7.34375 8.21875 -7.144531 8.21875 -6.90625 C 8.21875 -6.664062 8.257812 -6.53125 8.34375 -6.5 C 8.625 -6.300781 9.257812 -6.160156 10.25 -6.078125 L 18.40625 -5.78125 C 22.851562 -5.625 26.113281 -4.890625 28.1875 -3.578125 C 30.488281 -2.109375 31.640625 0.09375 31.640625 3.03125 C 31.640625 6.6875 29.953125 9.550781 26.578125 11.625 C 25.421875 12.289062 24.15625 12.84375 22.78125 13.28125 C 21.414062 13.71875 19.921875 14.035156 18.296875 14.234375 C 17.660156 14.316406 16.992188 14.378906 16.296875 14.421875 C 15.597656 14.460938 14.890625 14.484375 14.171875 14.484375 C 9.765625 14.484375 6.320312 13.773438 3.84375 12.359375 C 1.363281 10.953125 0.125 8.78125 0.125 5.84375 C 0.125 4.132812 0.675781 2.644531 1.78125 1.375 C 2.101562 0.976562 2.460938 0.640625 2.859375 0.359375 C 3.253906 0.078125 3.671875 -0.140625 4.109375 -0.296875 Z M 18.109375 -14.171875 C 18.429688 -14.492188 18.691406 -14.875 18.890625 -15.3125 C 19.085938 -15.75 19.234375 -16.253906 19.328125 -16.828125 C 19.429688 -17.398438 19.484375 -18.023438 19.484375 -18.703125 C 19.484375 -20.492188 19.023438 -21.90625 18.109375 -22.9375 C 17.234375 -23.925781 16.101562 -24.421875 14.71875 -24.421875 C 14.238281 -24.421875 13.800781 -24.367188 13.40625 -24.265625 C 13.007812 -24.171875 12.648438 -24.015625 12.328125 -23.796875 C 12.015625 -23.578125 11.707031 -23.304688 11.40625 -22.984375 C 11.113281 -22.671875 10.863281 -22.316406 10.65625 -21.921875 C 10.457031 -21.523438 10.304688 -21.066406 10.203125 -20.546875 C 10.109375 -20.035156 10.0625 -19.460938 10.0625 -18.828125 C 10.0625 -16.796875 10.519531 -15.242188 11.4375 -14.171875 C 12.3125 -13.179688 13.425781 -12.6875 14.78125 -12.6875 C 16.164062 -12.6875 17.273438 -13.179688 18.109375 -14.171875 Z M 18.109375 -14.171875 "/></g></g></g><g fill="#ff00ff" fill-opacity="1"><g transform="translate(371.191984, 75.288116)"><g><path d="M 1.078125 0.71875 C 0.679688 0.195312 0.484375 -0.378906 0.484375 -1.015625 L 0.484375 -1.125 C 0.484375 -1.125 0.484375 -1.144531 0.484375 -1.1875 C 0.554688 -2.21875 0.953125 -2.914062 1.671875 -3.28125 C 2.066406 -3.476562 2.640625 -3.578125 3.390625 -3.578125 C 4.066406 -3.578125 4.484375 -3.632812 4.640625 -3.75 C 4.765625 -3.875 4.847656 -3.972656 4.890625 -4.046875 C 4.921875 -4.484375 4.9375 -5.179688 4.9375 -6.140625 L 4.9375 -19.78125 C 4.9375 -20.726562 4.921875 -21.421875 4.890625 -21.859375 C 4.847656 -21.941406 4.765625 -22.039062 4.640625 -22.15625 C 4.484375 -22.28125 4.066406 -22.34375 3.390625 -22.34375 C 2.640625 -22.34375 2.023438 -22.484375 1.546875 -22.765625 C 0.835938 -23.203125 0.484375 -23.953125 0.484375 -25.015625 C 0.484375 -25.578125 0.660156 -26.097656 1.015625 -26.578125 C 1.210938 -26.847656 1.46875 -27.070312 1.78125 -27.25 C 2.101562 -27.4375 2.421875 -27.546875 2.734375 -27.578125 C 5.117188 -27.898438 7.144531 -28.378906 8.8125 -29.015625 C 9.175781 -29.171875 9.492188 -29.28125 9.765625 -29.34375 C 10.046875 -29.40625 10.304688 -29.453125 10.546875 -29.484375 L 10.90625 -29.484375 C 11.613281 -29.484375 12.195312 -29.210938 12.65625 -28.671875 C 13.113281 -28.140625 13.34375 -27.539062 13.34375 -26.875 L 13.34375 -6.140625 C 13.34375 -5.179688 13.382812 -4.503906 13.46875 -4.109375 C 13.46875 -4.023438 13.546875 -3.90625 13.703125 -3.75 C 13.703125 -3.75 13.738281 -3.738281 13.8125 -3.71875 C 13.894531 -3.695312 14.035156 -3.664062 14.234375 -3.625 C 14.429688 -3.59375 14.671875 -3.578125 14.953125 -3.578125 L 15.3125 -3.578125 C 15.945312 -3.578125 16.484375 -3.414062 16.921875 -3.09375 C 17.429688 -2.695312 17.726562 -2.039062 17.8125 -1.125 L 17.8125 -1.015625 C 17.8125 -0.859375 17.800781 -0.707031 17.78125 -0.5625 C 17.757812 -0.425781 17.726562 -0.285156 17.6875 -0.140625 C 17.65625 -0.00390625 17.609375 0.128906 17.546875 0.265625 C 17.484375 0.410156 17.414062 0.539062 17.34375 0.65625 C 17.175781 0.851562 16.984375 1.03125 16.765625 1.1875 C 16.546875 1.351562 16.316406 1.472656 16.078125 1.546875 C 15.847656 1.628906 15.613281 1.671875 15.375 1.671875 L 15.3125 1.671875 C 13.007812 1.546875 10.941406 1.484375 9.109375 1.484375 C 8.242188 1.484375 7.289062 1.492188 6.25 1.515625 C 5.21875 1.535156 4.128906 1.585938 2.984375 1.671875 L 2.921875 1.671875 C 2.160156 1.671875 1.546875 1.351562 1.078125 0.71875 Z M 5.015625 -34.5625 C 3.941406 -35.550781 3.40625 -36.78125 3.40625 -38.25 C 3.40625 -38.601562 3.453125 -38.945312 3.546875 -39.28125 C 3.648438 -39.625 3.78125 -39.953125 3.9375 -40.265625 C 4.09375 -40.585938 4.289062 -40.878906 4.53125 -41.140625 C 4.769531 -41.398438 5.050781 -41.648438 5.375 -41.890625 C 5.925781 -42.316406 6.546875 -42.648438 7.234375 -42.890625 C 7.929688 -43.128906 8.640625 -43.25 9.359375 -43.25 C 9.796875 -43.25 10.234375 -43.1875 10.671875 -43.0625 C 11.109375 -42.945312 11.515625 -42.78125 11.890625 -42.5625 C 12.265625 -42.34375 12.59375 -42.054688 12.875 -41.703125 C 13.789062 -40.753906 14.25 -39.546875 14.25 -38.078125 C 14.25 -36.679688 13.710938 -35.488281 12.640625 -34.5 C 11.609375 -33.582031 10.335938 -33.125 8.828125 -33.125 C 7.316406 -33.125 6.046875 -33.601562 5.015625 -34.5625 Z M 5.015625 -34.5625 "/></g></g></g><g fill="#ff00ff" fill-opacity="1"><g transform="translate(388.825121, 75.288116)"><g><path d="M 6.796875 -0.125 C 5.128906 -1.832031 4.296875 -4.210938 4.296875 -7.265625 L 4.296875 -23.234375 L 2.328125 -23.171875 C 2.085938 -23.171875 1.847656 -23.210938 1.609375 -23.296875 C 1.367188 -23.378906 1.160156 -23.488281 0.984375 -23.625 C 0.804688 -23.757812 0.65625 -23.925781 0.53125 -24.125 C 0.414062 -24.289062 0.316406 -24.460938 0.234375 -24.640625 C 0.160156 -24.816406 0.101562 -24.992188 0.0625 -25.171875 C 0.0195312 -25.347656 0 -25.535156 0 -25.734375 C 0 -26.328125 0.117188 -26.863281 0.359375 -27.34375 C 0.710938 -28.019531 1.269531 -28.4375 2.03125 -28.59375 C 3.175781 -28.832031 4.046875 -29.171875 4.640625 -29.609375 C 5.242188 -30.085938 5.679688 -30.582031 5.953125 -31.09375 C 6.035156 -31.332031 6.132812 -31.597656 6.25 -31.890625 C 6.375 -32.191406 6.515625 -32.550781 6.671875 -32.96875 C 6.828125 -33.394531 6.988281 -33.863281 7.15625 -34.375 C 7.3125 -34.726562 7.535156 -35.046875 7.828125 -35.328125 C 8.128906 -35.609375 8.457031 -35.804688 8.8125 -35.921875 C 9.175781 -36.046875 9.535156 -36.109375 9.890625 -36.109375 C 10.410156 -36.109375 10.90625 -35.988281 11.375 -35.75 C 12.207031 -35.3125 12.625 -34.65625 12.625 -33.78125 L 12.625 -33.65625 L 12.328125 -28.59375 L 17.640625 -28.890625 L 17.8125 -28.890625 C 18.570312 -28.890625 19.140625 -28.613281 19.515625 -28.0625 C 19.890625 -27.507812 20.078125 -26.914062 20.078125 -26.28125 C 20.078125 -25.675781 19.976562 -25.097656 19.78125 -24.546875 C 19.382812 -23.515625 18.75 -23 17.875 -23 L 12.6875 -23.109375 L 12.6875 -6.546875 C 12.6875 -5.515625 12.882812 -4.679688 13.28125 -4.046875 C 13.519531 -3.648438 13.976562 -3.453125 14.65625 -3.453125 C 15.175781 -3.453125 15.648438 -3.488281 16.078125 -3.5625 C 16.515625 -3.644531 16.9375 -3.785156 17.34375 -3.984375 L 17.390625 -3.984375 C 18.066406 -4.265625 18.566406 -4.40625 18.890625 -4.40625 C 19.242188 -4.40625 19.585938 -4.316406 19.921875 -4.140625 C 20.265625 -3.960938 20.535156 -3.734375 20.734375 -3.453125 C 20.972656 -3.171875 21.191406 -2.796875 21.390625 -2.328125 C 21.390625 -2.328125 21.445312 -2.03125 21.5625 -1.4375 C 21.5625 -0.800781 21.265625 -0.242188 20.671875 0.234375 L 20.546875 0.359375 C 19.242188 1.191406 18.015625 1.765625 16.859375 2.078125 C 15.710938 2.359375 14.382812 2.5 12.875 2.5 C 10.488281 2.5 8.460938 1.625 6.796875 -0.125 Z M 6.796875 -0.125 "/></g></g></g><g fill="#ff00ff" fill-opacity="1"><g transform="translate(411.40265, 75.288116)"><g><path d="M 3.21875 -0.234375 C 1.425781 -1.867188 0.53125 -3.914062 0.53125 -6.375 C 0.53125 -9.394531 1.566406 -11.675781 3.640625 -13.21875 C 5.503906 -14.613281 7.707031 -15.507812 10.25 -15.90625 C 12.269531 -16.257812 14.832031 -16.535156 17.9375 -16.734375 L 17.9375 -20.015625 C 17.9375 -20.847656 17.84375 -21.53125 17.65625 -22.0625 C 17.476562 -22.601562 17.210938 -23.054688 16.859375 -23.421875 C 16.578125 -23.734375 16.140625 -23.988281 15.546875 -24.1875 C 14.953125 -24.382812 14.195312 -24.484375 13.28125 -24.484375 C 12.96875 -24.484375 12.679688 -24.453125 12.421875 -24.390625 C 12.160156 -24.335938 11.910156 -24.25 11.671875 -24.125 C 11.429688 -24.007812 11.210938 -23.875 11.015625 -23.71875 C 10.742188 -23.476562 10.535156 -23.207031 10.390625 -22.90625 C 10.253906 -22.613281 10.1875 -22.25 10.1875 -21.8125 C 10.1875 -21.488281 10.242188 -21.25 10.359375 -21.09375 C 10.566406 -20.769531 10.785156 -20.507812 11.015625 -20.3125 C 11.054688 -20.3125 11.144531 -20.289062 11.28125 -20.25 C 11.425781 -20.21875 11.546875 -20.160156 11.640625 -20.078125 C 11.742188 -19.992188 11.84375 -19.832031 11.9375 -19.59375 C 12.039062 -19.363281 12.09375 -19.066406 12.09375 -18.703125 C 12.09375 -18.347656 12.003906 -18.007812 11.828125 -17.6875 C 11.648438 -17.375 11.5 -17.164062 11.375 -17.0625 C 11.257812 -16.96875 11.0625 -16.820312 10.78125 -16.625 C 9.988281 -16.03125 9.078125 -15.734375 8.046875 -15.734375 C 6.378906 -15.734375 5.046875 -16.347656 4.046875 -17.578125 C 3.140625 -18.722656 2.6875 -20.070312 2.6875 -21.625 C 2.6875 -24.289062 3.875 -26.257812 6.25 -27.53125 C 8.320312 -28.632812 10.785156 -29.1875 13.640625 -29.1875 C 14.796875 -29.1875 15.890625 -29.117188 16.921875 -28.984375 C 17.953125 -28.847656 18.921875 -28.617188 19.828125 -28.296875 C 20.742188 -27.984375 21.582031 -27.585938 22.34375 -27.109375 C 23.21875 -26.585938 23.941406 -25.921875 24.515625 -25.109375 C 25.085938 -24.296875 25.503906 -23.382812 25.765625 -22.375 C 26.023438 -21.363281 26.15625 -20.238281 26.15625 -19 L 26.15625 -5.1875 C 26.15625 -5.019531 26.164062 -4.867188 26.1875 -4.734375 C 26.207031 -4.597656 26.242188 -4.46875 26.296875 -4.34375 C 26.359375 -4.226562 26.421875 -4.097656 26.484375 -3.953125 C 26.546875 -3.816406 26.613281 -3.671875 26.6875 -3.515625 C 26.8125 -3.359375 26.941406 -3.25 27.078125 -3.1875 C 27.210938 -3.125 27.441406 -3.09375 27.765625 -3.09375 C 28.441406 -3.09375 29 -2.914062 29.4375 -2.5625 C 29.90625 -2.125 30.140625 -1.488281 30.140625 -0.65625 C 30.140625 0.570312 29.425781 1.382812 28 1.78125 C 27.125 2.0625 26.25 2.203125 25.375 2.203125 C 23.550781 2.203125 21.925781 1.664062 20.5 0.59375 C 19.863281 0.113281 19.347656 -0.441406 18.953125 -1.078125 C 18.742188 -0.878906 18.53125 -0.6875 18.3125 -0.5 C 18.101562 -0.320312 17.890625 -0.15625 17.671875 0 C 17.453125 0.15625 17.222656 0.289062 16.984375 0.40625 C 16.742188 0.53125 16.484375 0.671875 16.203125 0.828125 C 14.296875 1.742188 12.234375 2.203125 10.015625 2.203125 C 7.234375 2.203125 4.96875 1.390625 3.21875 -0.234375 Z M 14.890625 -4.828125 C 15.128906 -4.941406 15.359375 -5.078125 15.578125 -5.234375 C 15.796875 -5.398438 15.992188 -5.570312 16.171875 -5.75 C 16.347656 -5.925781 16.515625 -6.125 16.671875 -6.34375 C 16.835938 -6.5625 16.976562 -6.789062 17.09375 -7.03125 C 17.65625 -7.976562 17.9375 -9.03125 17.9375 -10.1875 L 17.9375 -11.96875 C 14.832031 -11.613281 12.644531 -11.0625 11.375 -10.3125 C 10.144531 -9.550781 9.53125 -8.296875 9.53125 -6.546875 C 9.53125 -5.515625 9.695312 -4.828125 10.03125 -4.484375 C 10.375 -4.148438 11.003906 -3.984375 11.921875 -3.984375 C 12.472656 -3.984375 12.992188 -4.050781 13.484375 -4.1875 C 13.984375 -4.332031 14.453125 -4.546875 14.890625 -4.828125 Z M 14.890625 -4.828125 "/></g></g></g><g fill="#ff00ff" fill-opacity="1"><g transform="translate(441.247901, 75.288116)"><g><path d="M 0.484375 0.71875 C 0.078125 0.195312 -0.125 -0.378906 -0.125 -1.015625 L -0.125 -1.125 C -0.0390625 -2.164062 0.316406 -2.863281 0.953125 -3.21875 C 1.390625 -3.457031 1.984375 -3.578125 2.734375 -3.578125 C 3.410156 -3.578125 3.828125 -3.632812 3.984375 -3.75 C 4.148438 -3.90625 4.234375 -4.023438 4.234375 -4.109375 C 4.304688 -4.503906 4.34375 -5.179688 4.34375 -6.140625 L 4.34375 -35.203125 C 4.34375 -35.679688 4.332031 -36.097656 4.3125 -36.453125 C 4.300781 -36.816406 4.296875 -37.097656 4.296875 -37.296875 L 4.046875 -37.59375 C 3.890625 -37.707031 3.472656 -37.765625 2.796875 -37.765625 C 2.046875 -37.765625 1.429688 -37.90625 0.953125 -38.1875 C 0.234375 -38.625 -0.125 -39.378906 -0.125 -40.453125 C -0.125 -41.003906 0.0546875 -41.519531 0.421875 -42 C 0.816406 -42.5625 1.390625 -42.898438 2.140625 -43.015625 C 4.523438 -43.328125 6.550781 -43.804688 8.21875 -44.453125 C 8.582031 -44.609375 8.898438 -44.710938 9.171875 -44.765625 C 9.453125 -44.828125 9.710938 -44.878906 9.953125 -44.921875 L 10.3125 -44.921875 C 11.019531 -44.921875 11.601562 -44.648438 12.0625 -44.109375 C 12.519531 -43.578125 12.75 -42.972656 12.75 -42.296875 L 12.75 -6.140625 C 12.75 -5.179688 12.789062 -4.503906 12.875 -4.109375 L 13.109375 -3.75 C 13.109375 -3.75 13.144531 -3.738281 13.21875 -3.71875 C 13.300781 -3.695312 13.441406 -3.664062 13.640625 -3.625 C 13.835938 -3.59375 14.078125 -3.578125 14.359375 -3.578125 L 14.71875 -3.578125 C 15.351562 -3.578125 15.890625 -3.414062 16.328125 -3.09375 C 16.835938 -2.695312 17.132812 -2.039062 17.21875 -1.125 L 17.21875 -1.015625 C 17.21875 -0.929688 17.21875 -0.847656 17.21875 -0.765625 C 17.21875 -0.691406 17.207031 -0.613281 17.1875 -0.53125 C 17.164062 -0.457031 17.144531 -0.378906 17.125 -0.296875 C 17.101562 -0.210938 17.082031 -0.128906 17.0625 -0.046875 C 17.050781 0.0234375 17.023438 0.0976562 16.984375 0.171875 C 16.941406 0.253906 16.898438 0.332031 16.859375 0.40625 C 16.816406 0.488281 16.773438 0.570312 16.734375 0.65625 C 16.578125 0.851562 16.390625 1.03125 16.171875 1.1875 C 15.953125 1.351562 15.722656 1.472656 15.484375 1.546875 C 15.253906 1.628906 15.019531 1.671875 14.78125 1.671875 L 14.71875 1.671875 C 12.414062 1.546875 10.347656 1.484375 8.515625 1.484375 C 7.640625 1.484375 6.6875 1.492188 5.65625 1.515625 C 4.625 1.535156 3.535156 1.585938 2.390625 1.671875 L 2.328125 1.671875 C 1.523438 1.671875 0.910156 1.351562 0.484375 0.71875 Z M 0.484375 0.71875 "/></g></g></g></svg>