<svg xmlns="http://www.w3.org/2000/svg" xmlns:xlink="http://www.w3.org/1999/xlink" width="982" zoomAndPan="magnify" viewBox="0 0 736.5 130.499996" height="174" preserveAspectRatio="xMidYMid meet" version="1.0"><defs><g/><clipPath id="cdc68a2010"><path d="M 1.15625 0 L 714 0 L 714 114 L 1.15625 114 Z M 1.15625 0 " clip-rule="nonzero"/></clipPath><clipPath id="2286b2a3ed"><rect x="0" width="713" y="0" height="114"/></clipPath></defs><g clip-path="url(#cdc68a2010)"><g transform="matrix(1, 0, 0, 1, 1, 0)"><g clip-path="url(#2286b2a3ed)"><path fill="#ee6afa" d="M 52.828125 7 C 54.90625 7.035156 56.847656 7.574219 58.644531 8.617188 C 70.746094 15.492188 82.882812 22.316406 95.054688 29.082031 C 98.054688 31.667969 98.59375 34.722656 96.667969 38.238281 C 94.621094 40.644531 92.070312 41.398438 89.023438 40.5 C 77.316406 34.003906 65.613281 27.503906 53.90625 21.003906 C 42.203125 27.503906 30.496094 34.003906 18.792969 40.5 C 14.640625 41.496094 11.804688 40.023438 10.28125 36.085938 C 9.675781 33.230469 10.5 30.894531 12.757812 29.082031 C 25.21875 22.171875 37.640625 15.207031 50.027344 8.1875 C 50.9375 7.660156 51.871094 7.261719 52.828125 7 Z M 52.828125 7 " fill-opacity="0.994" fill-rule="evenodd"/><path fill="#ff00ff" d="M 53.691406 28.113281 C 64.019531 33.707031 74.285156 39.417969 84.496094 45.242188 C 86.625 46.402344 88.886719 47.085938 91.285156 47.285156 C 91.390625 62.796875 91.425781 78.308594 91.390625 93.820312 C 92.542969 93.785156 93.691406 93.820312 94.839844 93.929688 C 96.972656 95.089844 97.511719 96.777344 96.453125 98.992188 C 96.050781 99.464844 95.582031 99.859375 95.054688 100.175781 C 87.238281 100.492188 79.410156 100.601562 71.570312 100.5 C 71.675781 86.699219 71.570312 72.910156 71.25 59.136719 C 70.613281 58.007812 69.644531 57.398438 68.339844 57.304688 C 58.644531 57.160156 48.953125 57.160156 39.257812 57.304688 C 38.042969 57.460938 37.144531 58.074219 36.5625 59.136719 C 36.242188 72.910156 36.136719 86.699219 36.242188 100.5 C 28.402344 100.601562 20.574219 100.496094 12.757812 100.175781 C 10.761719 98.941406 10.292969 97.253906 11.359375 95.113281 C 11.777344 94.550781 12.316406 94.15625 12.976562 93.929688 C 14.121094 93.820312 15.269531 93.785156 16.421875 93.820312 C 16.421875 78.308594 16.421875 62.796875 16.421875 47.285156 C 18.894531 47.195312 21.191406 46.511719 23.316406 45.242188 C 33.453125 39.527344 43.578125 33.816406 53.691406 28.113281 Z M 58.214844 74 C 60.355469 74.03125 61.578125 75.109375 61.878906 77.230469 C 61.253906 79.90625 59.671875 80.730469 57.136719 79.710938 C 55.765625 78.433594 55.515625 76.960938 56.382812 75.292969 C 56.960938 74.777344 57.570312 74.34375 58.214844 74 Z M 58.214844 74 " fill-opacity="0.996" fill-rule="evenodd"/><path fill="#ee6bfa" d="M 42.488281 63.660156 C 50.101562 63.660156 57.710938 63.660156 65.324219 63.660156 C 65.324219 75.9375 65.324219 88.21875 65.324219 100.5 C 57.710938 100.5 50.101562 100.5 42.488281 100.5 C 42.488281 88.21875 42.488281 75.9375 42.488281 63.660156 Z M 58.214844 74 C 57.570312 74.34375 56.960938 74.777344 56.382812 75.292969 C 55.515625 76.960938 55.765625 78.433594 57.136719 79.710938 C 59.671875 80.730469 61.253906 79.90625 61.878906 77.230469 C 61.578125 75.109375 60.355469 74.03125 58.214844 74 Z M 58.214844 74 " fill-opacity="0.985" fill-rule="evenodd"/><g fill="#ff00ff" fill-opacity="1"><g transform="translate(115.102304, 94.701797)"><g><path d="M 2.015625 0.828125 C 1.773438 0.472656 1.601562 0.109375 1.5 -0.265625 C 1.394531 -0.640625 1.34375 -1.023438 1.34375 -1.421875 L 1.34375 -1.578125 C 1.34375 -1.578125 1.34375 -1.625 1.34375 -1.71875 C 1.445312 -3.019531 1.898438 -3.894531 2.703125 -4.34375 C 3.242188 -4.695312 4.039062 -4.875 5.09375 -4.875 C 6.144531 -4.875 6.84375 -5 7.1875 -5.25 C 7.539062 -5.5 7.742188 -5.796875 7.796875 -6.140625 C 7.941406 -6.796875 8.039062 -7.671875 8.09375 -8.765625 L 8.09375 -38.4375 C 8.039062 -39.59375 7.941406 -40.46875 7.796875 -41.0625 C 7.742188 -41.414062 7.539062 -41.71875 7.1875 -41.96875 C 7.039062 -42.0625 6.789062 -42.160156 6.4375 -42.265625 C 6.09375 -42.367188 5.644531 -42.421875 5.09375 -42.421875 L 4.640625 -42.421875 C 4.441406 -42.421875 4.265625 -42.429688 4.109375 -42.453125 C 3.960938 -42.472656 3.773438 -42.492188 3.546875 -42.515625 C 3.328125 -42.546875 3.117188 -42.609375 2.921875 -42.703125 C 2.722656 -42.804688 2.546875 -42.957031 2.390625 -43.15625 C 2.296875 -43.207031 2.195312 -43.28125 2.09375 -43.375 C 2 -43.476562 1.925781 -43.566406 1.875 -43.640625 C 1.820312 -43.722656 1.769531 -43.8125 1.71875 -43.90625 C 1.675781 -44.007812 1.640625 -44.097656 1.609375 -44.171875 C 1.585938 -44.242188 1.5625 -44.34375 1.53125 -44.46875 C 1.507812 -44.59375 1.484375 -44.679688 1.453125 -44.734375 C 1.429688 -44.785156 1.421875 -44.875 1.421875 -45 C 1.421875 -45.125 1.40625 -45.210938 1.375 -45.265625 C 1.351562 -45.316406 1.34375 -45.390625 1.34375 -45.484375 C 1.34375 -45.585938 1.34375 -45.664062 1.34375 -45.71875 L 1.34375 -45.859375 C 1.394531 -46.710938 1.617188 -47.460938 2.015625 -48.109375 C 2.222656 -48.359375 2.460938 -48.582031 2.734375 -48.78125 C 3.003906 -48.976562 3.300781 -49.128906 3.625 -49.234375 C 3.957031 -49.335938 4.273438 -49.390625 4.578125 -49.390625 L 4.640625 -49.390625 C 6.242188 -49.285156 7.78125 -49.21875 9.25 -49.1875 C 10.726562 -49.164062 12.140625 -49.15625 13.484375 -49.15625 L 26.375 -49.15625 C 30.519531 -49.101562 33.992188 -48.429688 36.796875 -47.140625 C 37.347656 -46.890625 37.875 -46.625 38.375 -46.34375 C 38.875 -46.070312 39.359375 -45.757812 39.828125 -45.40625 C 40.304688 -45.0625 40.742188 -44.710938 41.140625 -44.359375 C 41.535156 -44.015625 41.910156 -43.640625 42.265625 -43.234375 C 42.617188 -42.835938 42.941406 -42.414062 43.234375 -41.96875 C 44.640625 -39.820312 45.34375 -37.523438 45.34375 -35.078125 C 45.34375 -33.472656 45.015625 -31.921875 44.359375 -30.421875 C 43.710938 -28.921875 42.789062 -27.523438 41.59375 -26.234375 C 41.09375 -25.734375 40.554688 -25.242188 39.984375 -24.765625 C 39.410156 -24.296875 38.8125 -23.859375 38.1875 -23.453125 C 37.5625 -23.054688 36.921875 -22.691406 36.265625 -22.359375 C 35.617188 -22.035156 34.921875 -21.75 34.171875 -21.5 C 36.265625 -18.101562 38.140625 -15.234375 39.796875 -12.890625 C 41.441406 -10.585938 43.210938 -8.414062 45.109375 -6.375 C 45.660156 -5.914062 46.207031 -5.570312 46.75 -5.34375 C 47.300781 -5.125 47.878906 -4.96875 48.484375 -4.875 C 48.628906 -4.875 48.851562 -4.847656 49.15625 -4.796875 C 50.007812 -4.742188 50.707031 -4.421875 51.25 -3.828125 C 51.550781 -3.472656 51.765625 -3.09375 51.890625 -2.6875 C 52.015625 -2.289062 52.078125 -1.867188 52.078125 -1.421875 C 52.078125 -0.578125 51.851562 0.171875 51.40625 0.828125 C 51.300781 0.921875 51.195312 1.019531 51.09375 1.125 C 51 1.226562 50.898438 1.328125 50.796875 1.421875 C 50.703125 1.523438 50.59375 1.613281 50.46875 1.6875 C 50.34375 1.757812 50.21875 1.820312 50.09375 1.875 C 49.96875 1.925781 49.828125 1.960938 49.671875 1.984375 C 49.523438 2.003906 49.378906 2.023438 49.234375 2.046875 C 49.085938 2.078125 48.960938 2.09375 48.859375 2.09375 L 46.84375 2.015625 C 44.632812 1.921875 43.054688 1.875 42.109375 1.875 L 41.734375 1.875 C 39.492188 1.375 37.546875 0.550781 35.890625 -0.59375 C 35.347656 -1 34.8125 -1.453125 34.28125 -1.953125 C 33.757812 -2.453125 33.25 -2.988281 32.75 -3.5625 C 32.25 -4.132812 31.75 -4.742188 31.25 -5.390625 C 29.75 -7.335938 27.703125 -10.488281 25.109375 -14.84375 L 23.75 -17.015625 C 23.601562 -17.210938 23.46875 -17.394531 23.34375 -17.5625 C 23.21875 -17.738281 23.101562 -17.890625 23 -18.015625 C 22.90625 -18.140625 22.804688 -18.253906 22.703125 -18.359375 C 22.609375 -18.460938 22.507812 -18.535156 22.40625 -18.578125 C 22.300781 -18.628906 22.226562 -18.679688 22.1875 -18.734375 C 21.78125 -18.984375 20.90625 -19.109375 19.5625 -19.109375 L 19.265625 -19.109375 L 19.265625 -8.765625 C 19.304688 -8.171875 19.335938 -7.660156 19.359375 -7.234375 C 19.390625 -6.804688 19.457031 -6.441406 19.5625 -6.140625 C 19.613281 -5.992188 19.675781 -5.84375 19.75 -5.6875 C 19.820312 -5.539062 19.957031 -5.394531 20.15625 -5.25 C 20.507812 -5 21.207031 -4.875 22.25 -4.875 L 22.703125 -4.875 C 23.109375 -4.875 23.484375 -4.820312 23.828125 -4.71875 C 24.179688 -4.625 24.53125 -4.453125 24.875 -4.203125 C 25.53125 -3.703125 25.90625 -2.828125 26 -1.578125 L 26 -1.421875 C 26 -0.578125 25.773438 0.171875 25.328125 0.828125 C 25.128906 1.078125 24.890625 1.300781 24.609375 1.5 C 24.335938 1.695312 24.039062 1.84375 23.71875 1.9375 C 23.394531 2.039062 23.082031 2.09375 22.78125 2.09375 L 22.703125 2.09375 C 19.503906 1.945312 16.40625 1.875 13.40625 1.875 C 10.8125 1.875 7.890625 1.945312 4.640625 2.09375 L 4.578125 2.09375 C 3.472656 2.09375 2.617188 1.671875 2.015625 0.828125 Z M 23.984375 -25.78125 C 27.273438 -25.78125 29.644531 -26.453125 31.09375 -27.796875 C 32.539062 -29.148438 33.265625 -31.347656 33.265625 -34.390625 C 33.265625 -36.742188 32.476562 -38.707031 30.90625 -40.28125 C 29.332031 -41.851562 26.570312 -42.640625 22.625 -42.640625 C 21.476562 -42.640625 20.65625 -42.515625 20.15625 -42.265625 C 19.851562 -42.160156 19.65625 -41.9375 19.5625 -41.59375 C 19.457031 -41.34375 19.378906 -40.914062 19.328125 -40.3125 C 19.285156 -39.71875 19.265625 -39.046875 19.265625 -38.296875 L 19.265625 -25.78125 Z M 23.984375 -25.78125 "/></g></g></g><g fill="#ff00ff" fill-opacity="1"><g transform="translate(165.381909, 94.701797)"><g><path d="M 10.046875 0.078125 C 7.140625 -1.671875 4.941406 -4.09375 3.453125 -7.1875 C 1.953125 -10.1875 1.203125 -13.507812 1.203125 -17.15625 C 1.203125 -20.40625 1.953125 -23.53125 3.453125 -26.53125 C 4.992188 -29.53125 7.164062 -31.976562 9.96875 -33.875 C 12.8125 -35.769531 16.082031 -36.71875 19.78125 -36.71875 C 24.726562 -36.71875 28.578125 -35.421875 31.328125 -32.828125 C 34.078125 -30.222656 35.648438 -26.75 36.046875 -22.40625 L 36.046875 -22.25 C 36.046875 -19.957031 35.320312 -18.3125 33.875 -17.3125 C 32.675781 -16.507812 31.023438 -16.109375 28.921875 -16.109375 L 12.671875 -16.109375 C 12.867188 -12.710938 13.691406 -10.015625 15.140625 -8.015625 C 16.679688 -5.816406 19.15625 -4.71875 22.5625 -4.71875 C 22.90625 -4.71875 23.25 -4.726562 23.59375 -4.75 C 23.945312 -4.78125 24.285156 -4.832031 24.609375 -4.90625 C 24.941406 -4.976562 25.242188 -5.050781 25.515625 -5.125 C 25.785156 -5.207031 26.046875 -5.3125 26.296875 -5.4375 C 26.546875 -5.5625 26.796875 -5.695312 27.046875 -5.84375 C 28.296875 -6.59375 29.519531 -7.941406 30.71875 -9.890625 L 30.796875 -10.109375 L 30.953125 -10.265625 C 31.253906 -10.515625 31.578125 -10.726562 31.921875 -10.90625 C 32.273438 -11.082031 32.648438 -11.171875 33.046875 -11.171875 C 33.191406 -11.171875 33.363281 -11.144531 33.5625 -11.09375 C 33.769531 -11.039062 33.957031 -10.988281 34.125 -10.9375 C 34.300781 -10.882812 34.460938 -10.820312 34.609375 -10.75 C 34.765625 -10.675781 34.894531 -10.613281 35 -10.5625 C 36.039062 -9.863281 36.5625 -8.890625 36.5625 -7.640625 C 36.5625 -7.335938 36.523438 -7.050781 36.453125 -6.78125 C 36.378906 -6.507812 36.269531 -6.222656 36.125 -5.921875 C 35.269531 -4.617188 34.289062 -3.414062 33.1875 -2.3125 C 32.09375 -1.21875 30.894531 -0.296875 29.59375 0.453125 C 26.945312 1.992188 23.953125 2.765625 20.609375 2.765625 C 16.515625 2.765625 12.992188 1.867188 10.046875 0.078125 Z M 22.9375 -22.703125 C 23.832031 -22.703125 24.40625 -22.800781 24.65625 -23 C 24.90625 -23.207031 25.054688 -23.5625 25.109375 -24.0625 C 25.109375 -24.351562 25.09375 -24.625 25.0625 -24.875 C 25.039062 -25.125 25.003906 -25.375 24.953125 -25.625 C 24.898438 -25.875 24.847656 -26.109375 24.796875 -26.328125 C 24.753906 -26.554688 24.691406 -26.769531 24.609375 -26.96875 C 24.535156 -27.175781 24.445312 -27.378906 24.34375 -27.578125 C 24.25 -27.773438 24.140625 -27.960938 24.015625 -28.140625 C 23.890625 -28.316406 23.753906 -28.503906 23.609375 -28.703125 C 23.160156 -29.253906 22.632812 -29.664062 22.03125 -29.9375 C 21.425781 -30.207031 20.675781 -30.34375 19.78125 -30.34375 C 17.832031 -30.34375 16.207031 -29.570312 14.90625 -28.03125 C 13.863281 -26.675781 13.164062 -24.898438 12.8125 -22.703125 Z M 22.9375 -22.703125 "/></g></g></g><g fill="#ff00ff" fill-opacity="1"><g transform="translate(202.997946, 94.701797)"><g><path d="M 1.953125 0.828125 C 1.703125 0.472656 1.523438 0.109375 1.421875 -0.265625 C 1.328125 -0.640625 1.28125 -1.023438 1.28125 -1.421875 L 1.28125 -1.578125 C 1.28125 -1.578125 1.28125 -1.625 1.28125 -1.71875 C 1.375 -3.019531 1.820312 -3.894531 2.625 -4.34375 C 3.175781 -4.695312 3.972656 -4.875 5.015625 -4.875 C 6.066406 -4.875 6.769531 -5 7.125 -5.25 C 7.46875 -5.5 7.664062 -5.796875 7.71875 -6.140625 C 7.863281 -6.796875 7.960938 -7.671875 8.015625 -8.765625 L 8.015625 -38.515625 C 7.960938 -39.617188 7.863281 -40.492188 7.71875 -41.140625 C 7.664062 -41.285156 7.601562 -41.429688 7.53125 -41.578125 C 7.457031 -41.734375 7.320312 -41.863281 7.125 -41.96875 C 6.769531 -42.269531 6.066406 -42.421875 5.015625 -42.421875 L 4.578125 -42.421875 C 4.367188 -42.421875 4.191406 -42.429688 4.046875 -42.453125 C 3.898438 -42.472656 3.710938 -42.492188 3.484375 -42.515625 C 3.253906 -42.546875 3.039062 -42.609375 2.84375 -42.703125 C 2.644531 -42.804688 2.472656 -42.957031 2.328125 -43.15625 C 2.171875 -43.257812 2.054688 -43.347656 1.984375 -43.421875 C 1.910156 -43.492188 1.835938 -43.59375 1.765625 -43.71875 C 1.691406 -43.84375 1.628906 -43.941406 1.578125 -44.015625 C 1.523438 -44.097656 1.484375 -44.203125 1.453125 -44.328125 C 1.429688 -44.453125 1.40625 -44.550781 1.375 -44.625 C 1.351562 -44.695312 1.34375 -44.796875 1.34375 -44.921875 C 1.34375 -45.046875 1.332031 -45.132812 1.3125 -45.1875 C 1.289062 -45.238281 1.28125 -45.335938 1.28125 -45.484375 C 1.28125 -45.640625 1.28125 -45.71875 1.28125 -45.71875 L 1.28125 -45.859375 C 1.28125 -46.054688 1.289062 -46.253906 1.3125 -46.453125 C 1.332031 -46.660156 1.367188 -46.847656 1.421875 -47.015625 C 1.472656 -47.191406 1.546875 -47.367188 1.640625 -47.546875 C 1.742188 -47.722656 1.847656 -47.910156 1.953125 -48.109375 C 2.148438 -48.359375 2.382812 -48.582031 2.65625 -48.78125 C 2.9375 -48.976562 3.238281 -49.128906 3.5625 -49.234375 C 3.882812 -49.335938 4.195312 -49.390625 4.5 -49.390625 L 4.578125 -49.390625 C 6.171875 -49.285156 7.703125 -49.21875 9.171875 -49.1875 C 10.648438 -49.164062 12.039062 -49.15625 13.34375 -49.15625 L 23.90625 -49.15625 C 24.601562 -49.15625 25.273438 -49.140625 25.921875 -49.109375 C 26.578125 -49.085938 27.203125 -49.050781 27.796875 -49 C 28.398438 -48.957031 28.960938 -48.894531 29.484375 -48.8125 C 30.015625 -48.738281 30.53125 -48.628906 31.03125 -48.484375 C 32.925781 -48.035156 34.644531 -47.335938 36.1875 -46.390625 C 36.9375 -45.890625 37.625 -45.273438 38.25 -44.546875 C 38.875 -43.828125 39.410156 -43.039062 39.859375 -42.1875 C 40.765625 -40.4375 41.21875 -38.539062 41.21875 -36.5 C 41.21875 -34.695312 40.90625 -33.054688 40.28125 -31.578125 C 39.65625 -30.109375 38.742188 -28.828125 37.546875 -27.734375 C 36.890625 -27.128906 36.164062 -26.578125 35.375 -26.078125 C 36.019531 -25.828125 36.59375 -25.578125 37.09375 -25.328125 C 39.539062 -24.179688 41.441406 -22.609375 42.796875 -20.609375 C 43.492188 -19.554688 44.015625 -18.476562 44.359375 -17.375 C 44.710938 -16.28125 44.890625 -15.132812 44.890625 -13.9375 C 44.890625 -13.1875 44.835938 -12.445312 44.734375 -11.71875 C 44.640625 -11 44.488281 -10.300781 44.28125 -9.625 C 44.082031 -8.957031 43.84375 -8.320312 43.5625 -7.71875 C 43.289062 -7.113281 42.957031 -6.523438 42.5625 -5.953125 C 42.164062 -5.378906 41.71875 -4.84375 41.21875 -4.34375 C 38.914062 -2.050781 36.039062 -0.40625 32.59375 0.59375 C 29.300781 1.5 25.90625 1.953125 22.40625 1.953125 L 13.40625 1.875 C 10.757812 1.875 7.816406 1.945312 4.578125 2.09375 L 4.5 2.09375 C 3.394531 2.09375 2.546875 1.671875 1.953125 0.828125 Z M 20.453125 -28.546875 C 22.304688 -28.546875 23.929688 -28.671875 25.328125 -28.921875 C 26.378906 -29.171875 27.328125 -29.796875 28.171875 -30.796875 C 29.023438 -31.691406 29.453125 -33.289062 29.453125 -35.59375 C 29.453125 -38.144531 28.925781 -39.957031 27.875 -41.03125 C 26.820312 -42.101562 25.050781 -42.640625 22.5625 -42.640625 L 19.1875 -42.640625 L 19.1875 -28.546875 Z M 30.421875 -7.125 C 32.117188 -8.519531 32.992188 -10.914062 33.046875 -14.3125 C 32.796875 -16.40625 31.769531 -18.15625 29.96875 -19.5625 C 28.019531 -21.0625 24.828125 -21.8125 20.390625 -21.8125 L 19.1875 -21.8125 L 19.1875 -8.765625 C 19.1875 -7.316406 19.3125 -6.289062 19.5625 -5.6875 C 19.707031 -5.34375 19.859375 -5.144531 20.015625 -5.09375 C 20.160156 -5.039062 20.34375 -4.988281 20.5625 -4.9375 C 20.789062 -4.894531 21.09375 -4.859375 21.46875 -4.828125 C 21.84375 -4.804688 22.253906 -4.796875 22.703125 -4.796875 C 25.953125 -4.847656 28.523438 -5.625 30.421875 -7.125 Z M 30.421875 -7.125 "/></g></g></g><g fill="#ff00ff" fill-opacity="1"><g transform="translate(249.530931, 94.701797)"><g><path d="M 10.046875 0.078125 C 7.140625 -1.671875 4.941406 -4.09375 3.453125 -7.1875 C 1.953125 -10.1875 1.203125 -13.507812 1.203125 -17.15625 C 1.203125 -20.40625 1.953125 -23.53125 3.453125 -26.53125 C 4.992188 -29.53125 7.164062 -31.976562 9.96875 -33.875 C 12.8125 -35.769531 16.082031 -36.71875 19.78125 -36.71875 C 24.726562 -36.71875 28.578125 -35.421875 31.328125 -32.828125 C 34.078125 -30.222656 35.648438 -26.75 36.046875 -22.40625 L 36.046875 -22.25 C 36.046875 -19.957031 35.320312 -18.3125 33.875 -17.3125 C 32.675781 -16.507812 31.023438 -16.109375 28.921875 -16.109375 L 12.671875 -16.109375 C 12.867188 -12.710938 13.691406 -10.015625 15.140625 -8.015625 C 16.679688 -5.816406 19.15625 -4.71875 22.5625 -4.71875 C 22.90625 -4.71875 23.25 -4.726562 23.59375 -4.75 C 23.945312 -4.78125 24.285156 -4.832031 24.609375 -4.90625 C 24.941406 -4.976562 25.242188 -5.050781 25.515625 -5.125 C 25.785156 -5.207031 26.046875 -5.3125 26.296875 -5.4375 C 26.546875 -5.5625 26.796875 -5.695312 27.046875 -5.84375 C 28.296875 -6.59375 29.519531 -7.941406 30.71875 -9.890625 L 30.796875 -10.109375 L 30.953125 -10.265625 C 31.253906 -10.515625 31.578125 -10.726562 31.921875 -10.90625 C 32.273438 -11.082031 32.648438 -11.171875 33.046875 -11.171875 C 33.191406 -11.171875 33.363281 -11.144531 33.5625 -11.09375 C 33.769531 -11.039062 33.957031 -10.988281 34.125 -10.9375 C 34.300781 -10.882812 34.460938 -10.820312 34.609375 -10.75 C 34.765625 -10.675781 34.894531 -10.613281 35 -10.5625 C 36.039062 -9.863281 36.5625 -8.890625 36.5625 -7.640625 C 36.5625 -7.335938 36.523438 -7.050781 36.453125 -6.78125 C 36.378906 -6.507812 36.269531 -6.222656 36.125 -5.921875 C 35.269531 -4.617188 34.289062 -3.414062 33.1875 -2.3125 C 32.09375 -1.21875 30.894531 -0.296875 29.59375 0.453125 C 26.945312 1.992188 23.953125 2.765625 20.609375 2.765625 C 16.515625 2.765625 12.992188 1.867188 10.046875 0.078125 Z M 22.9375 -22.703125 C 23.832031 -22.703125 24.40625 -22.800781 24.65625 -23 C 24.90625 -23.207031 25.054688 -23.5625 25.109375 -24.0625 C 25.109375 -24.351562 25.09375 -24.625 25.0625 -24.875 C 25.039062 -25.125 25.003906 -25.375 24.953125 -25.625 C 24.898438 -25.875 24.847656 -26.109375 24.796875 -26.328125 C 24.753906 -26.554688 24.691406 -26.769531 24.609375 -26.96875 C 24.535156 -27.175781 24.445312 -27.378906 24.34375 -27.578125 C 24.25 -27.773438 24.140625 -27.960938 24.015625 -28.140625 C 23.890625 -28.316406 23.753906 -28.503906 23.609375 -28.703125 C 23.160156 -29.253906 22.632812 -29.664062 22.03125 -29.9375 C 21.425781 -30.207031 20.675781 -30.34375 19.78125 -30.34375 C 17.832031 -30.34375 16.207031 -29.570312 14.90625 -28.03125 C 13.863281 -26.675781 13.164062 -24.898438 12.8125 -22.703125 Z M 22.9375 -22.703125 "/></g></g></g><g fill="#ff00ff" fill-opacity="1"><g transform="translate(287.146967, 94.701797)"><g><path d="M 5.6875 0.453125 C 2.539062 -1.296875 0.96875 -3.820312 0.96875 -7.125 C 0.96875 -9.070312 1.59375 -10.671875 2.84375 -11.921875 C 3.445312 -12.566406 4.160156 -13.050781 4.984375 -13.375 C 5.804688 -13.695312 6.664062 -13.859375 7.5625 -13.859375 C 7.863281 -13.859375 8.148438 -13.832031 8.421875 -13.78125 C 8.703125 -13.738281 8.976562 -13.675781 9.25 -13.59375 C 9.53125 -13.519531 9.796875 -13.421875 10.046875 -13.296875 C 10.296875 -13.171875 10.546875 -13.007812 10.796875 -12.8125 C 10.835938 -12.8125 10.945312 -12.75 11.125 -12.625 C 11.300781 -12.5 11.425781 -12.398438 11.5 -12.328125 C 11.570312 -12.253906 11.679688 -12.140625 11.828125 -11.984375 C 11.984375 -11.835938 12.097656 -11.6875 12.171875 -11.53125 C 12.253906 -11.382812 12.332031 -11.195312 12.40625 -10.96875 C 12.476562 -10.75 12.515625 -10.515625 12.515625 -10.265625 C 12.515625 -9.816406 12.460938 -9.441406 12.359375 -9.140625 C 12.265625 -8.835938 12.15625 -8.648438 12.03125 -8.578125 C 11.90625 -8.503906 11.738281 -8.40625 11.53125 -8.28125 C 11.332031 -8.15625 11.210938 -8.066406 11.171875 -8.015625 C 10.921875 -7.765625 10.796875 -7.34375 10.796875 -6.75 C 10.796875 -5.945312 11.191406 -5.296875 11.984375 -4.796875 C 13.035156 -4.097656 14.6875 -3.75 16.9375 -3.75 C 18.832031 -3.75 20.28125 -4.125 21.28125 -4.875 C 22.132812 -5.519531 22.5625 -6.46875 22.5625 -7.71875 C 22.5625 -8.113281 22.507812 -8.445312 22.40625 -8.71875 C 22.300781 -9 22.148438 -9.265625 21.953125 -9.515625 C 21.648438 -9.816406 21.320312 -10.078125 20.96875 -10.296875 C 20.625 -10.523438 20.226562 -10.738281 19.78125 -10.9375 C 19.28125 -11.132812 18.644531 -11.359375 17.875 -11.609375 C 17.101562 -11.859375 16.238281 -12.132812 15.28125 -12.4375 C 14.03125 -12.789062 12.878906 -13.15625 11.828125 -13.53125 C 10.785156 -13.90625 9.863281 -14.265625 9.0625 -14.609375 C 8.113281 -15.015625 7.253906 -15.523438 6.484375 -16.140625 C 5.710938 -16.765625 5 -17.503906 4.34375 -18.359375 C 3 -20.054688 2.328125 -22.253906 2.328125 -24.953125 C 2.328125 -27.503906 3.125 -29.703125 4.71875 -31.546875 C 5.46875 -32.441406 6.328125 -33.210938 7.296875 -33.859375 C 8.273438 -34.515625 9.363281 -35.066406 10.5625 -35.515625 C 11.3125 -35.765625 12.070312 -35.976562 12.84375 -36.15625 C 13.625 -36.332031 14.414062 -36.46875 15.21875 -36.5625 C 16.0625 -36.664062 16.910156 -36.71875 17.765625 -36.71875 C 21.054688 -36.71875 23.925781 -36.019531 26.375 -34.625 C 29.175781 -32.96875 30.578125 -30.671875 30.578125 -27.734375 C 30.578125 -25.929688 30 -24.378906 28.84375 -23.078125 C 27.644531 -21.679688 26.097656 -20.984375 24.203125 -20.984375 C 23.003906 -20.984375 21.929688 -21.332031 20.984375 -22.03125 C 20.929688 -22.03125 20.816406 -22.09375 20.640625 -22.21875 C 20.472656 -22.34375 20.347656 -22.441406 20.265625 -22.515625 C 20.191406 -22.585938 20.078125 -22.695312 19.921875 -22.84375 C 19.773438 -23 19.664062 -23.148438 19.59375 -23.296875 C 19.519531 -23.453125 19.445312 -23.640625 19.375 -23.859375 C 19.300781 -24.085938 19.265625 -24.328125 19.265625 -24.578125 C 19.265625 -25.023438 19.328125 -25.398438 19.453125 -25.703125 C 19.578125 -26.003906 19.703125 -26.191406 19.828125 -26.265625 C 19.953125 -26.335938 20.085938 -26.398438 20.234375 -26.453125 C 20.378906 -26.503906 20.476562 -26.554688 20.53125 -26.609375 C 20.78125 -26.859375 21.03125 -27.15625 21.28125 -27.5 C 21.382812 -27.601562 21.4375 -27.78125 21.4375 -28.03125 C 21.382812 -28.726562 21.007812 -29.273438 20.3125 -29.671875 C 19.363281 -30.222656 18.210938 -30.5 16.859375 -30.5 L 15.96875 -30.421875 C 15.363281 -30.367188 14.8125 -30.269531 14.3125 -30.125 C 13.8125 -29.976562 13.335938 -29.753906 12.890625 -29.453125 C 12.035156 -28.953125 11.609375 -28.273438 11.609375 -27.421875 C 11.609375 -26.878906 11.660156 -26.429688 11.765625 -26.078125 C 11.867188 -25.722656 11.992188 -25.421875 12.140625 -25.171875 C 12.285156 -25.023438 12.429688 -24.875 12.578125 -24.71875 C 12.734375 -24.570312 12.9375 -24.425781 13.1875 -24.28125 C 13.4375 -24.132812 13.738281 -23.984375 14.09375 -23.828125 C 14.632812 -23.578125 15.367188 -23.289062 16.296875 -22.96875 C 17.222656 -22.644531 18.335938 -22.28125 19.640625 -21.875 C 20.285156 -21.625 20.90625 -21.398438 21.5 -21.203125 C 22.101562 -21.003906 22.679688 -20.804688 23.234375 -20.609375 C 23.785156 -20.410156 24.296875 -20.207031 24.765625 -20 C 25.242188 -19.800781 25.679688 -19.601562 26.078125 -19.40625 C 27.878906 -18.5625 29.300781 -17.390625 30.34375 -15.890625 C 31.445312 -14.335938 32 -12.363281 32 -9.96875 C 32 -8.769531 31.8125 -7.609375 31.4375 -6.484375 C 31.0625 -5.359375 30.523438 -4.296875 29.828125 -3.296875 C 29.128906 -2.296875 28.300781 -1.421875 27.34375 -0.671875 C 26.394531 0.078125 25.320312 0.703125 24.125 1.203125 C 22.375 1.992188 20.453125 2.492188 18.359375 2.703125 C 17.710938 2.742188 17.039062 2.765625 16.34375 2.765625 C 11.988281 2.765625 8.4375 1.992188 5.6875 0.453125 Z M 5.6875 0.453125 "/></g></g></g><g fill="#ff00ff" fill-opacity="1"><g transform="translate(320.342004, 94.701797)"><g><path d="M 8.546875 -0.15625 C 6.441406 -2.300781 5.390625 -5.296875 5.390625 -9.140625 L 5.390625 -29.21875 L 2.921875 -29.15625 C 2.617188 -29.15625 2.316406 -29.203125 2.015625 -29.296875 C 1.722656 -29.398438 1.460938 -29.535156 1.234375 -29.703125 C 1.015625 -29.878906 0.828125 -30.09375 0.671875 -30.34375 C 0.523438 -30.550781 0.398438 -30.765625 0.296875 -30.984375 C 0.203125 -31.210938 0.128906 -31.4375 0.078125 -31.65625 C 0.0234375 -31.882812 0 -32.125 0 -32.375 C 0 -33.125 0.148438 -33.796875 0.453125 -34.390625 C 0.898438 -35.242188 1.597656 -35.769531 2.546875 -35.96875 C 3.992188 -36.269531 5.09375 -36.695312 5.84375 -37.25 C 6.59375 -37.84375 7.144531 -38.46875 7.5 -39.125 C 7.59375 -39.414062 7.710938 -39.75 7.859375 -40.125 C 8.015625 -40.5 8.191406 -40.945312 8.390625 -41.46875 C 8.585938 -42 8.789062 -42.585938 9 -43.234375 C 9.195312 -43.679688 9.484375 -44.082031 9.859375 -44.4375 C 10.234375 -44.789062 10.644531 -45.039062 11.09375 -45.1875 C 11.539062 -45.332031 11.988281 -45.40625 12.4375 -45.40625 C 13.082031 -45.40625 13.707031 -45.257812 14.3125 -44.96875 C 15.363281 -44.414062 15.890625 -43.585938 15.890625 -42.484375 L 15.890625 -42.34375 L 15.515625 -35.96875 L 22.1875 -36.34375 L 22.40625 -36.34375 C 23.351562 -36.34375 24.0625 -35.992188 24.53125 -35.296875 C 25.007812 -34.597656 25.25 -33.847656 25.25 -33.046875 C 25.25 -32.296875 25.125 -31.570312 24.875 -30.875 C 24.375 -29.570312 23.578125 -28.921875 22.484375 -28.921875 L 15.96875 -29.078125 L 15.96875 -8.25 C 15.96875 -6.945312 16.21875 -5.894531 16.71875 -5.09375 C 17.007812 -4.59375 17.582031 -4.34375 18.4375 -4.34375 C 19.082031 -4.34375 19.679688 -4.390625 20.234375 -4.484375 C 20.785156 -4.585938 21.3125 -4.765625 21.8125 -5.015625 L 21.875 -5.015625 C 22.726562 -5.367188 23.351562 -5.546875 23.75 -5.546875 C 24.195312 -5.546875 24.632812 -5.429688 25.0625 -5.203125 C 25.488281 -4.984375 25.828125 -4.695312 26.078125 -4.34375 C 26.378906 -4 26.65625 -3.523438 26.90625 -2.921875 C 26.90625 -2.921875 26.976562 -2.546875 27.125 -1.796875 C 27.125 -0.992188 26.75 -0.296875 26 0.296875 L 25.921875 0.375 L 25.859375 0.453125 C 24.203125 1.492188 22.648438 2.21875 21.203125 2.625 C 19.753906 2.96875 18.082031 3.140625 16.1875 3.140625 C 13.1875 3.140625 10.640625 2.039062 8.546875 -0.15625 Z M 8.546875 -0.15625 "/></g></g></g><g fill="#ff00ff" fill-opacity="1"><g transform="translate(348.741371, 94.701797)"><g><path d="M 2.015625 0.828125 C 1.773438 0.472656 1.601562 0.109375 1.5 -0.265625 C 1.394531 -0.640625 1.34375 -1.023438 1.34375 -1.421875 L 1.34375 -1.578125 C 1.34375 -1.578125 1.34375 -1.625 1.34375 -1.71875 C 1.445312 -3.019531 1.898438 -3.894531 2.703125 -4.34375 C 3.242188 -4.695312 4.039062 -4.875 5.09375 -4.875 C 6.144531 -4.875 6.84375 -5 7.1875 -5.25 C 7.539062 -5.5 7.742188 -5.796875 7.796875 -6.140625 C 7.941406 -6.796875 8.039062 -7.671875 8.09375 -8.765625 L 8.09375 -38.515625 C 8.039062 -39.617188 7.941406 -40.492188 7.796875 -41.140625 C 7.796875 -41.242188 7.769531 -41.34375 7.71875 -41.4375 C 7.664062 -41.539062 7.601562 -41.640625 7.53125 -41.734375 C 7.457031 -41.835938 7.34375 -41.914062 7.1875 -41.96875 C 6.84375 -42.269531 6.144531 -42.421875 5.09375 -42.421875 L 4.640625 -42.421875 C 4.441406 -42.421875 4.265625 -42.429688 4.109375 -42.453125 C 3.960938 -42.472656 3.773438 -42.492188 3.546875 -42.515625 C 3.328125 -42.546875 3.117188 -42.609375 2.921875 -42.703125 C 2.722656 -42.804688 2.546875 -42.957031 2.390625 -43.15625 C 2.296875 -43.207031 2.195312 -43.28125 2.09375 -43.375 C 2 -43.476562 1.925781 -43.566406 1.875 -43.640625 C 1.820312 -43.722656 1.769531 -43.8125 1.71875 -43.90625 C 1.675781 -44.007812 1.640625 -44.097656 1.609375 -44.171875 C 1.585938 -44.242188 1.5625 -44.34375 1.53125 -44.46875 C 1.507812 -44.59375 1.484375 -44.679688 1.453125 -44.734375 C 1.429688 -44.785156 1.421875 -44.875 1.421875 -45 C 1.421875 -45.125 1.40625 -45.210938 1.375 -45.265625 C 1.351562 -45.316406 1.34375 -45.390625 1.34375 -45.484375 C 1.34375 -45.585938 1.34375 -45.664062 1.34375 -45.71875 L 1.34375 -45.859375 C 1.394531 -46.710938 1.617188 -47.460938 2.015625 -48.109375 C 2.265625 -48.503906 2.613281 -48.816406 3.0625 -49.046875 C 3.519531 -49.273438 4 -49.390625 4.5 -49.390625 L 4.578125 -49.390625 C 7.867188 -49.234375 10.8125 -49.15625 13.40625 -49.15625 L 36.9375 -49.15625 C 37.488281 -49.15625 38 -49.078125 38.46875 -48.921875 C 38.945312 -48.773438 39.390625 -48.503906 39.796875 -48.109375 C 40.441406 -47.460938 40.765625 -46.585938 40.765625 -45.484375 L 40.984375 -35 C 40.984375 -33.84375 40.460938 -32.941406 39.421875 -32.296875 C 38.671875 -31.847656 37.894531 -31.625 37.09375 -31.625 C 36.945312 -31.625 36.8125 -31.625 36.6875 -31.625 C 36.5625 -31.625 36.421875 -31.632812 36.265625 -31.65625 C 36.117188 -31.6875 35.984375 -31.710938 35.859375 -31.734375 C 35.734375 -31.765625 35.609375 -31.800781 35.484375 -31.84375 C 35.359375 -31.894531 35.21875 -31.945312 35.0625 -32 C 34.914062 -32.050781 34.796875 -32.097656 34.703125 -32.140625 C 33.703125 -32.640625 33.097656 -33.441406 32.890625 -34.546875 C 32.546875 -36.890625 32.148438 -38.640625 31.703125 -39.796875 C 31.347656 -40.691406 30.894531 -41.335938 30.34375 -41.734375 C 29.695312 -42.140625 28.722656 -42.367188 27.421875 -42.421875 L 19.265625 -42.421875 L 19.265625 -27.125 L 31.25 -27.125 C 32.144531 -26.976562 32.84375 -26.503906 33.34375 -25.703125 C 33.75 -25.054688 33.953125 -24.332031 33.953125 -23.53125 C 33.953125 -23.332031 33.9375 -23.144531 33.90625 -22.96875 C 33.882812 -22.789062 33.847656 -22.613281 33.796875 -22.4375 C 33.742188 -22.269531 33.679688 -22.097656 33.609375 -21.921875 C 33.535156 -21.742188 33.445312 -21.582031 33.34375 -21.4375 C 33.09375 -21.03125 32.742188 -20.710938 32.296875 -20.484375 C 31.847656 -20.265625 31.398438 -20.15625 30.953125 -20.15625 L 19.265625 -20.15625 L 19.265625 -7.9375 C 19.359375 -7.039062 19.457031 -6.316406 19.5625 -5.765625 C 19.613281 -5.617188 19.8125 -5.445312 20.15625 -5.25 C 20.550781 -4.945312 21.375 -4.820312 22.625 -4.875 L 29.53125 -4.875 C 30.28125 -4.925781 30.898438 -5 31.390625 -5.09375 C 31.890625 -5.195312 32.265625 -5.320312 32.515625 -5.46875 C 33.117188 -5.820312 33.597656 -6.375 33.953125 -7.125 C 34.148438 -7.570312 34.410156 -8.234375 34.734375 -9.109375 C 35.054688 -9.984375 35.394531 -11.019531 35.75 -12.21875 L 35.75 -12.296875 L 35.8125 -12.359375 C 36.164062 -13.265625 36.765625 -13.90625 37.609375 -14.28125 C 38.460938 -14.65625 39.390625 -14.765625 40.390625 -14.609375 L 40.46875 -14.609375 C 40.863281 -14.515625 41.234375 -14.378906 41.578125 -14.203125 C 41.929688 -14.023438 42.257812 -13.835938 42.5625 -13.640625 C 42.957031 -13.285156 43.269531 -12.859375 43.5 -12.359375 C 43.726562 -11.859375 43.816406 -11.335938 43.765625 -10.796875 L 43.765625 -10.71875 L 42.265625 -1.28125 L 42.265625 -1.203125 L 42.1875 -1.125 C 42.09375 -0.625 41.941406 -0.175781 41.734375 0.21875 C 41.535156 0.625 41.210938 0.976562 40.765625 1.28125 C 40.160156 1.675781 39.3125 1.875 38.21875 1.875 L 13.484375 1.875 C 12.140625 1.875 10.726562 1.882812 9.25 1.90625 C 7.78125 1.9375 6.222656 2 4.578125 2.09375 L 4.5 2.09375 C 3.445312 2.09375 2.617188 1.671875 2.015625 0.828125 Z M 2.015625 0.828125 "/></g></g></g><g fill="#ff00ff" fill-opacity="1"><g transform="translate(393.25119, 94.701797)"><g><path d="M 6 -2.703125 C 2.800781 -6.296875 1.203125 -11.066406 1.203125 -17.015625 C 1.296875 -20.753906 2.21875 -24.097656 3.96875 -27.046875 C 4.519531 -28.046875 5.15625 -28.96875 5.875 -29.8125 C 6.601562 -30.664062 7.390625 -31.441406 8.234375 -32.140625 C 9.085938 -32.847656 10.015625 -33.472656 11.015625 -34.015625 C 13.210938 -35.316406 15.585938 -36.144531 18.140625 -36.5 C 18.929688 -36.59375 19.78125 -36.664062 20.6875 -36.71875 C 21.832031 -36.71875 22.925781 -36.640625 23.96875 -36.484375 C 25.019531 -36.335938 26.03125 -36.113281 27 -35.8125 C 27.976562 -35.519531 28.921875 -35.148438 29.828125 -34.703125 C 31.273438 -33.953125 32.382812 -32.910156 33.15625 -31.578125 C 33.9375 -30.253906 34.328125 -28.742188 34.328125 -27.046875 C 34.328125 -25.054688 33.722656 -23.3125 32.515625 -21.8125 C 31.222656 -20.15625 29.503906 -19.328125 27.359375 -19.328125 C 26.003906 -19.328125 24.828125 -19.703125 23.828125 -20.453125 C 22.628906 -21.304688 22.03125 -22.234375 22.03125 -23.234375 C 22.03125 -23.578125 22.066406 -23.882812 22.140625 -24.15625 C 22.210938 -24.4375 22.3125 -24.640625 22.4375 -24.765625 C 22.5625 -24.890625 22.675781 -24.976562 22.78125 -25.03125 C 22.882812 -25.082031 23 -25.128906 23.125 -25.171875 C 23.25 -25.222656 23.3125 -25.273438 23.3125 -25.328125 C 23.65625 -25.578125 23.976562 -25.925781 24.28125 -26.375 C 24.332031 -26.53125 24.378906 -26.679688 24.421875 -26.828125 C 24.472656 -26.972656 24.5 -27.148438 24.5 -27.359375 C 24.5 -27.503906 24.5 -27.640625 24.5 -27.765625 C 24.5 -27.890625 24.484375 -28.015625 24.453125 -28.140625 C 24.429688 -28.265625 24.394531 -28.375 24.34375 -28.46875 C 24.300781 -28.570312 24.253906 -28.660156 24.203125 -28.734375 C 24.148438 -28.804688 24.097656 -28.878906 24.046875 -28.953125 C 24.003906 -29.035156 23.941406 -29.097656 23.859375 -29.140625 C 23.785156 -29.191406 23.703125 -29.269531 23.609375 -29.375 C 23.203125 -29.625 22.757812 -29.820312 22.28125 -29.96875 C 21.8125 -30.125 21.253906 -30.203125 20.609375 -30.203125 C 20.003906 -30.203125 19.453125 -30.175781 18.953125 -30.125 C 16.804688 -29.769531 15.3125 -28.742188 14.46875 -27.046875 C 13.21875 -24.453125 12.59375 -21.179688 12.59375 -17.234375 C 12.59375 -13.441406 13.414062 -10.34375 15.0625 -7.9375 C 16.613281 -5.789062 18.632812 -4.71875 21.125 -4.71875 C 21.726562 -4.71875 22.304688 -4.753906 22.859375 -4.828125 C 23.410156 -4.910156 23.921875 -5.035156 24.390625 -5.203125 C 24.867188 -5.378906 25.304688 -5.59375 25.703125 -5.84375 C 26.953125 -6.59375 28.125 -7.789062 29.21875 -9.4375 C 29.46875 -9.84375 29.804688 -10.15625 30.234375 -10.375 C 30.660156 -10.601562 31.097656 -10.71875 31.546875 -10.71875 C 32.046875 -10.71875 32.617188 -10.566406 33.265625 -10.265625 C 33.816406 -10.015625 34.253906 -9.613281 34.578125 -9.0625 C 34.910156 -8.519531 35.078125 -7.945312 35.078125 -7.34375 C 35.078125 -6.84375 34.898438 -6.316406 34.546875 -5.765625 L 34.546875 -5.6875 L 34.46875 -5.6875 C 32.675781 -3.09375 30.429688 -1.046875 27.734375 0.453125 C 25.035156 1.992188 22.257812 2.765625 19.40625 2.765625 C 13.757812 2.765625 9.289062 0.941406 6 -2.703125 Z M 6 -2.703125 "/></g></g></g><g fill="#ff00ff" fill-opacity="1"><g transform="translate(428.844062, 94.701797)"><g><path d="M 10.484375 0.078125 C 9.742188 -0.367188 9.046875 -0.851562 8.390625 -1.375 C 7.742188 -1.90625 7.128906 -2.46875 6.546875 -3.0625 C 5.972656 -3.664062 5.445312 -4.304688 4.96875 -4.984375 C 4.5 -5.660156 4.066406 -6.347656 3.671875 -7.046875 C 2.023438 -10.046875 1.203125 -13.191406 1.203125 -16.484375 C 1.203125 -20.578125 2.175781 -24.175781 4.125 -27.28125 C 6.019531 -30.320312 8.46875 -32.65625 11.46875 -34.28125 C 14.46875 -35.90625 17.488281 -36.71875 20.53125 -36.71875 C 22.382812 -36.71875 24.160156 -36.492188 25.859375 -36.046875 C 27.554688 -35.597656 29.128906 -34.921875 30.578125 -34.015625 C 33.523438 -32.222656 35.804688 -29.835938 37.421875 -26.859375 C 39.046875 -23.890625 39.859375 -20.753906 39.859375 -17.453125 C 39.859375 -13.359375 38.882812 -9.765625 36.9375 -6.671875 C 34.988281 -3.617188 32.515625 -1.285156 29.515625 0.328125 C 26.523438 1.953125 23.53125 2.765625 20.53125 2.765625 C 16.78125 2.765625 13.429688 1.867188 10.484375 0.078125 Z M 26.375 -7.125 C 26.625 -7.625 26.859375 -8.160156 27.078125 -8.734375 C 27.304688 -9.304688 27.507812 -9.914062 27.6875 -10.5625 C 27.863281 -11.21875 28.015625 -11.90625 28.140625 -12.625 C 28.265625 -13.351562 28.347656 -14.128906 28.390625 -14.953125 C 28.441406 -15.773438 28.46875 -16.609375 28.46875 -17.453125 C 28.46875 -21.398438 27.742188 -24.597656 26.296875 -27.046875 C 25.046875 -29.148438 23.125 -30.203125 20.53125 -30.203125 C 19.082031 -30.203125 17.894531 -29.9375 16.96875 -29.40625 C 16.050781 -28.882812 15.289062 -28.050781 14.6875 -26.90625 C 14.238281 -26.050781 13.863281 -25.113281 13.5625 -24.09375 C 13.257812 -23.070312 13.019531 -21.9375 12.84375 -20.6875 C 12.675781 -19.4375 12.59375 -18.085938 12.59375 -16.640625 C 12.59375 -12.691406 13.316406 -9.46875 14.765625 -6.96875 C 15.410156 -5.875 16.179688 -5.0625 17.078125 -4.53125 C 17.984375 -4.007812 19.132812 -3.75 20.53125 -3.75 C 21.476562 -3.75 22.300781 -3.875 23 -4.125 C 23.707031 -4.375 24.332031 -4.734375 24.875 -5.203125 C 25.425781 -5.679688 25.925781 -6.320312 26.375 -7.125 Z M 26.375 -7.125 "/></g></g></g><g fill="#ff00ff" fill-opacity="1"><g transform="translate(469.906997, 94.701797)"><g><path d="M 5.6875 0.453125 C 2.539062 -1.296875 0.96875 -3.820312 0.96875 -7.125 C 0.96875 -9.070312 1.59375 -10.671875 2.84375 -11.921875 C 3.445312 -12.566406 4.160156 -13.050781 4.984375 -13.375 C 5.804688 -13.695312 6.664062 -13.859375 7.5625 -13.859375 C 7.863281 -13.859375 8.148438 -13.832031 8.421875 -13.78125 C 8.703125 -13.738281 8.976562 -13.675781 9.25 -13.59375 C 9.53125 -13.519531 9.796875 -13.421875 10.046875 -13.296875 C 10.296875 -13.171875 10.546875 -13.007812 10.796875 -12.8125 C 10.835938 -12.8125 10.945312 -12.75 11.125 -12.625 C 11.300781 -12.5 11.425781 -12.398438 11.5 -12.328125 C 11.570312 -12.253906 11.679688 -12.140625 11.828125 -11.984375 C 11.984375 -11.835938 12.097656 -11.6875 12.171875 -11.53125 C 12.253906 -11.382812 12.332031 -11.195312 12.40625 -10.96875 C 12.476562 -10.75 12.515625 -10.515625 12.515625 -10.265625 C 12.515625 -9.816406 12.460938 -9.441406 12.359375 -9.140625 C 12.265625 -8.835938 12.15625 -8.648438 12.03125 -8.578125 C 11.90625 -8.503906 11.738281 -8.40625 11.53125 -8.28125 C 11.332031 -8.15625 11.210938 -8.066406 11.171875 -8.015625 C 10.921875 -7.765625 10.796875 -7.34375 10.796875 -6.75 C 10.796875 -5.945312 11.191406 -5.296875 11.984375 -4.796875 C 13.035156 -4.097656 14.6875 -3.75 16.9375 -3.75 C 18.832031 -3.75 20.28125 -4.125 21.28125 -4.875 C 22.132812 -5.519531 22.5625 -6.46875 22.5625 -7.71875 C 22.5625 -8.113281 22.507812 -8.445312 22.40625 -8.71875 C 22.300781 -9 22.148438 -9.265625 21.953125 -9.515625 C 21.648438 -9.816406 21.320312 -10.078125 20.96875 -10.296875 C 20.625 -10.523438 20.226562 -10.738281 19.78125 -10.9375 C 19.28125 -11.132812 18.644531 -11.359375 17.875 -11.609375 C 17.101562 -11.859375 16.238281 -12.132812 15.28125 -12.4375 C 14.03125 -12.789062 12.878906 -13.15625 11.828125 -13.53125 C 10.785156 -13.90625 9.863281 -14.265625 9.0625 -14.609375 C 8.113281 -15.015625 7.253906 -15.523438 6.484375 -16.140625 C 5.710938 -16.765625 5 -17.503906 4.34375 -18.359375 C 3 -20.054688 2.328125 -22.253906 2.328125 -24.953125 C 2.328125 -27.503906 3.125 -29.703125 4.71875 -31.546875 C 5.46875 -32.441406 6.328125 -33.210938 7.296875 -33.859375 C 8.273438 -34.515625 9.363281 -35.066406 10.5625 -35.515625 C 11.3125 -35.765625 12.070312 -35.976562 12.84375 -36.15625 C 13.625 -36.332031 14.414062 -36.46875 15.21875 -36.5625 C 16.0625 -36.664062 16.910156 -36.71875 17.765625 -36.71875 C 21.054688 -36.71875 23.925781 -36.019531 26.375 -34.625 C 29.175781 -32.96875 30.578125 -30.671875 30.578125 -27.734375 C 30.578125 -25.929688 30 -24.378906 28.84375 -23.078125 C 27.644531 -21.679688 26.097656 -20.984375 24.203125 -20.984375 C 23.003906 -20.984375 21.929688 -21.332031 20.984375 -22.03125 C 20.929688 -22.03125 20.816406 -22.09375 20.640625 -22.21875 C 20.472656 -22.34375 20.347656 -22.441406 20.265625 -22.515625 C 20.191406 -22.585938 20.078125 -22.695312 19.921875 -22.84375 C 19.773438 -23 19.664062 -23.148438 19.59375 -23.296875 C 19.519531 -23.453125 19.445312 -23.640625 19.375 -23.859375 C 19.300781 -24.085938 19.265625 -24.328125 19.265625 -24.578125 C 19.265625 -25.023438 19.328125 -25.398438 19.453125 -25.703125 C 19.578125 -26.003906 19.703125 -26.191406 19.828125 -26.265625 C 19.953125 -26.335938 20.085938 -26.398438 20.234375 -26.453125 C 20.378906 -26.503906 20.476562 -26.554688 20.53125 -26.609375 C 20.78125 -26.859375 21.03125 -27.15625 21.28125 -27.5 C 21.382812 -27.601562 21.4375 -27.78125 21.4375 -28.03125 C 21.382812 -28.726562 21.007812 -29.273438 20.3125 -29.671875 C 19.363281 -30.222656 18.210938 -30.5 16.859375 -30.5 L 15.96875 -30.421875 C 15.363281 -30.367188 14.8125 -30.269531 14.3125 -30.125 C 13.8125 -29.976562 13.335938 -29.753906 12.890625 -29.453125 C 12.035156 -28.953125 11.609375 -28.273438 11.609375 -27.421875 C 11.609375 -26.878906 11.660156 -26.429688 11.765625 -26.078125 C 11.867188 -25.722656 11.992188 -25.421875 12.140625 -25.171875 C 12.285156 -25.023438 12.429688 -24.875 12.578125 -24.71875 C 12.734375 -24.570312 12.9375 -24.425781 13.1875 -24.28125 C 13.4375 -24.132812 13.738281 -23.984375 14.09375 -23.828125 C 14.632812 -23.578125 15.367188 -23.289062 16.296875 -22.96875 C 17.222656 -22.644531 18.335938 -22.28125 19.640625 -21.875 C 20.285156 -21.625 20.90625 -21.398438 21.5 -21.203125 C 22.101562 -21.003906 22.679688 -20.804688 23.234375 -20.609375 C 23.785156 -20.410156 24.296875 -20.207031 24.765625 -20 C 25.242188 -19.800781 25.679688 -19.601562 26.078125 -19.40625 C 27.878906 -18.5625 29.300781 -17.390625 30.34375 -15.890625 C 31.445312 -14.335938 32 -12.363281 32 -9.96875 C 32 -8.769531 31.8125 -7.609375 31.4375 -6.484375 C 31.0625 -5.359375 30.523438 -4.296875 29.828125 -3.296875 C 29.128906 -2.296875 28.300781 -1.421875 27.34375 -0.671875 C 26.394531 0.078125 25.320312 0.703125 24.125 1.203125 C 22.375 1.992188 20.453125 2.492188 18.359375 2.703125 C 17.710938 2.742188 17.039062 2.765625 16.34375 2.765625 C 11.988281 2.765625 8.4375 1.992188 5.6875 0.453125 Z M 5.6875 0.453125 "/></g></g></g><g fill="#ff00ff" fill-opacity="1"><g transform="translate(503.102034, 94.701797)"><g><path d="M 0.296875 15.734375 C -0.753906 14.890625 -1.550781 13.925781 -2.09375 12.84375 C -2.644531 11.769531 -2.921875 10.613281 -2.921875 9.375 C -2.921875 6.375 -1.945312 4.375 0 3.375 C 1.5 2.625 2.75 2.25 3.75 2.25 C 4.144531 2.25 4.503906 2.269531 4.828125 2.3125 C 5.160156 2.363281 5.5 2.453125 5.84375 2.578125 C 6.195312 2.703125 6.519531 2.867188 6.8125 3.078125 C 7.0625 3.222656 7.25 3.34375 7.375 3.4375 C 7.5 3.539062 7.675781 3.703125 7.90625 3.921875 C 8.132812 4.148438 8.296875 4.398438 8.390625 4.671875 C 8.492188 4.953125 8.546875 5.269531 8.546875 5.625 C 8.546875 5.914062 8.519531 6.175781 8.46875 6.40625 C 8.414062 6.632812 8.335938 6.820312 8.234375 6.96875 C 8.140625 7.113281 8.039062 7.222656 7.9375 7.296875 C 7.84375 7.378906 7.742188 7.441406 7.640625 7.484375 C 7.546875 7.535156 7.472656 7.585938 7.421875 7.640625 C 7.367188 7.835938 7.34375 8.113281 7.34375 8.46875 C 7.34375 9.019531 7.519531 9.492188 7.875 9.890625 C 8.125 10.191406 8.519531 10.34375 9.0625 10.34375 C 10.414062 10.34375 11.863281 9.316406 13.40625 7.265625 C 14.457031 5.921875 15.484375 4.125 16.484375 1.875 C 16.640625 1.425781 16.71875 1.125 16.71875 0.96875 C 16.71875 0.71875 16.640625 0.320312 16.484375 -0.21875 C 15.429688 -2.519531 13.757812 -6.691406 11.46875 -12.734375 C 9.414062 -18.128906 7.738281 -22.253906 6.4375 -25.109375 C 5.695312 -26.804688 5.050781 -27.953125 4.5 -28.546875 C 4.34375 -28.648438 4.175781 -28.75 4 -28.84375 C 3.832031 -28.945312 3.582031 -29.046875 3.25 -29.140625 C 2.925781 -29.242188 2.59375 -29.320312 2.25 -29.375 L 2.015625 -29.453125 L 1.875 -29.453125 C 1.769531 -29.503906 1.617188 -29.53125 1.421875 -29.53125 C 0.367188 -29.675781 -0.351562 -30.148438 -0.75 -30.953125 C -1 -31.398438 -1.125 -32.023438 -1.125 -32.828125 C -1.125 -33.367188 -1.007812 -33.898438 -0.78125 -34.421875 C -0.5625 -34.953125 -0.148438 -35.367188 0.453125 -35.671875 C 1.003906 -35.921875 1.628906 -36.046875 2.328125 -36.046875 C 2.773438 -36.097656 3.097656 -36.125 3.296875 -36.125 C 6.742188 -36.269531 9.492188 -35.742188 11.546875 -34.546875 C 13.640625 -33.347656 15.335938 -31.273438 16.640625 -28.328125 C 17.734375 -25.722656 18.707031 -23.273438 19.5625 -20.984375 C 20.707031 -17.890625 21.726562 -15.265625 22.625 -13.109375 L 24.734375 -18.65625 L 28.46875 -28.703125 C 28.570312 -28.953125 28.648438 -29.175781 28.703125 -29.375 C 28.503906 -29.425781 28.300781 -29.453125 28.09375 -29.453125 C 27.894531 -29.453125 27.671875 -29.453125 27.421875 -29.453125 L 26.984375 -29.453125 C 26.578125 -29.453125 26.210938 -29.5 25.890625 -29.59375 C 25.566406 -29.695312 25.226562 -29.875 24.875 -30.125 C 24.332031 -30.625 24.007812 -31.421875 23.90625 -32.515625 L 23.90625 -32.671875 C 23.90625 -33.316406 24.054688 -33.941406 24.359375 -34.546875 C 24.898438 -35.546875 25.722656 -36.046875 26.828125 -36.046875 L 26.90625 -36.046875 C 28.351562 -35.941406 29.660156 -35.875 30.828125 -35.84375 C 32.003906 -35.820312 33.09375 -35.8125 34.09375 -35.8125 C 34.84375 -35.8125 36.367188 -35.863281 38.671875 -35.96875 L 40.234375 -36.046875 L 40.3125 -36.046875 C 41.363281 -36.046875 42.164062 -35.597656 42.71875 -34.703125 C 43.113281 -34.046875 43.3125 -33.367188 43.3125 -32.671875 L 43.3125 -32.515625 C 43.207031 -31.367188 42.832031 -30.546875 42.1875 -30.046875 C 41.632812 -29.648438 40.960938 -29.453125 40.171875 -29.453125 C 39.367188 -29.453125 38.691406 -29.390625 38.140625 -29.265625 C 37.585938 -29.140625 37.164062 -29 36.875 -28.84375 C 36.21875 -28.445312 35.617188 -27.578125 35.078125 -26.234375 C 34.828125 -25.578125 34.535156 -24.847656 34.203125 -24.046875 C 33.878906 -23.253906 33.515625 -22.359375 33.109375 -21.359375 C 32.710938 -20.359375 32.289062 -19.285156 31.84375 -18.140625 C 31.144531 -16.441406 30.375 -14.566406 29.53125 -12.515625 C 28.675781 -10.421875 27.898438 -8.5 27.203125 -6.75 C 26.503906 -5 25.863281 -3.4375 25.28125 -2.0625 C 24.707031 -0.6875 24.222656 0.5 23.828125 1.5 C 22.378906 4.945312 20.734375 8.019531 18.890625 10.71875 C 18.390625 11.519531 17.863281 12.242188 17.3125 12.890625 C 14.507812 16.429688 11.132812 18.203125 7.1875 18.203125 C 4.59375 18.203125 2.296875 17.378906 0.296875 15.734375 Z M 0.296875 15.734375 "/></g></g></g><g fill="#ff00ff" fill-opacity="1"><g transform="translate(544.464706, 94.701797)"><g><path d="M 5.6875 0.453125 C 2.539062 -1.296875 0.96875 -3.820312 0.96875 -7.125 C 0.96875 -9.070312 1.59375 -10.671875 2.84375 -11.921875 C 3.445312 -12.566406 4.160156 -13.050781 4.984375 -13.375 C 5.804688 -13.695312 6.664062 -13.859375 7.5625 -13.859375 C 7.863281 -13.859375 8.148438 -13.832031 8.421875 -13.78125 C 8.703125 -13.738281 8.976562 -13.675781 9.25 -13.59375 C 9.53125 -13.519531 9.796875 -13.421875 10.046875 -13.296875 C 10.296875 -13.171875 10.546875 -13.007812 10.796875 -12.8125 C 10.835938 -12.8125 10.945312 -12.75 11.125 -12.625 C 11.300781 -12.5 11.425781 -12.398438 11.5 -12.328125 C 11.570312 -12.253906 11.679688 -12.140625 11.828125 -11.984375 C 11.984375 -11.835938 12.097656 -11.6875 12.171875 -11.53125 C 12.253906 -11.382812 12.332031 -11.195312 12.40625 -10.96875 C 12.476562 -10.75 12.515625 -10.515625 12.515625 -10.265625 C 12.515625 -9.816406 12.460938 -9.441406 12.359375 -9.140625 C 12.265625 -8.835938 12.15625 -8.648438 12.03125 -8.578125 C 11.90625 -8.503906 11.738281 -8.40625 11.53125 -8.28125 C 11.332031 -8.15625 11.210938 -8.066406 11.171875 -8.015625 C 10.921875 -7.765625 10.796875 -7.34375 10.796875 -6.75 C 10.796875 -5.945312 11.191406 -5.296875 11.984375 -4.796875 C 13.035156 -4.097656 14.6875 -3.75 16.9375 -3.75 C 18.832031 -3.75 20.28125 -4.125 21.28125 -4.875 C 22.132812 -5.519531 22.5625 -6.46875 22.5625 -7.71875 C 22.5625 -8.113281 22.507812 -8.445312 22.40625 -8.71875 C 22.300781 -9 22.148438 -9.265625 21.953125 -9.515625 C 21.648438 -9.816406 21.320312 -10.078125 20.96875 -10.296875 C 20.625 -10.523438 20.226562 -10.738281 19.78125 -10.9375 C 19.28125 -11.132812 18.644531 -11.359375 17.875 -11.609375 C 17.101562 -11.859375 16.238281 -12.132812 15.28125 -12.4375 C 14.03125 -12.789062 12.878906 -13.15625 11.828125 -13.53125 C 10.785156 -13.90625 9.863281 -14.265625 9.0625 -14.609375 C 8.113281 -15.015625 7.253906 -15.523438 6.484375 -16.140625 C 5.710938 -16.765625 5 -17.503906 4.34375 -18.359375 C 3 -20.054688 2.328125 -22.253906 2.328125 -24.953125 C 2.328125 -27.503906 3.125 -29.703125 4.71875 -31.546875 C 5.46875 -32.441406 6.328125 -33.210938 7.296875 -33.859375 C 8.273438 -34.515625 9.363281 -35.066406 10.5625 -35.515625 C 11.3125 -35.765625 12.070312 -35.976562 12.84375 -36.15625 C 13.625 -36.332031 14.414062 -36.46875 15.21875 -36.5625 C 16.0625 -36.664062 16.910156 -36.71875 17.765625 -36.71875 C 21.054688 -36.71875 23.925781 -36.019531 26.375 -34.625 C 29.175781 -32.96875 30.578125 -30.671875 30.578125 -27.734375 C 30.578125 -25.929688 30 -24.378906 28.84375 -23.078125 C 27.644531 -21.679688 26.097656 -20.984375 24.203125 -20.984375 C 23.003906 -20.984375 21.929688 -21.332031 20.984375 -22.03125 C 20.929688 -22.03125 20.816406 -22.09375 20.640625 -22.21875 C 20.472656 -22.34375 20.347656 -22.441406 20.265625 -22.515625 C 20.191406 -22.585938 20.078125 -22.695312 19.921875 -22.84375 C 19.773438 -23 19.664062 -23.148438 19.59375 -23.296875 C 19.519531 -23.453125 19.445312 -23.640625 19.375 -23.859375 C 19.300781 -24.085938 19.265625 -24.328125 19.265625 -24.578125 C 19.265625 -25.023438 19.328125 -25.398438 19.453125 -25.703125 C 19.578125 -26.003906 19.703125 -26.191406 19.828125 -26.265625 C 19.953125 -26.335938 20.085938 -26.398438 20.234375 -26.453125 C 20.378906 -26.503906 20.476562 -26.554688 20.53125 -26.609375 C 20.78125 -26.859375 21.03125 -27.15625 21.28125 -27.5 C 21.382812 -27.601562 21.4375 -27.78125 21.4375 -28.03125 C 21.382812 -28.726562 21.007812 -29.273438 20.3125 -29.671875 C 19.363281 -30.222656 18.210938 -30.5 16.859375 -30.5 L 15.96875 -30.421875 C 15.363281 -30.367188 14.8125 -30.269531 14.3125 -30.125 C 13.8125 -29.976562 13.335938 -29.753906 12.890625 -29.453125 C 12.035156 -28.953125 11.609375 -28.273438 11.609375 -27.421875 C 11.609375 -26.878906 11.660156 -26.429688 11.765625 -26.078125 C 11.867188 -25.722656 11.992188 -25.421875 12.140625 -25.171875 C 12.285156 -25.023438 12.429688 -24.875 12.578125 -24.71875 C 12.734375 -24.570312 12.9375 -24.425781 13.1875 -24.28125 C 13.4375 -24.132812 13.738281 -23.984375 14.09375 -23.828125 C 14.632812 -23.578125 15.367188 -23.289062 16.296875 -22.96875 C 17.222656 -22.644531 18.335938 -22.28125 19.640625 -21.875 C 20.285156 -21.625 20.90625 -21.398438 21.5 -21.203125 C 22.101562 -21.003906 22.679688 -20.804688 23.234375 -20.609375 C 23.785156 -20.410156 24.296875 -20.207031 24.765625 -20 C 25.242188 -19.800781 25.679688 -19.601562 26.078125 -19.40625 C 27.878906 -18.5625 29.300781 -17.390625 30.34375 -15.890625 C 31.445312 -14.335938 32 -12.363281 32 -9.96875 C 32 -8.769531 31.8125 -7.609375 31.4375 -6.484375 C 31.0625 -5.359375 30.523438 -4.296875 29.828125 -3.296875 C 29.128906 -2.296875 28.300781 -1.421875 27.34375 -0.671875 C 26.394531 0.078125 25.320312 0.703125 24.125 1.203125 C 22.375 1.992188 20.453125 2.492188 18.359375 2.703125 C 17.710938 2.742188 17.039062 2.765625 16.34375 2.765625 C 11.988281 2.765625 8.4375 1.992188 5.6875 0.453125 Z M 5.6875 0.453125 "/></g></g></g><g fill="#ff00ff" fill-opacity="1"><g transform="translate(577.659714, 94.701797)"><g><path d="M 8.546875 -0.15625 C 6.441406 -2.300781 5.390625 -5.296875 5.390625 -9.140625 L 5.390625 -29.21875 L 2.921875 -29.15625 C 2.617188 -29.15625 2.316406 -29.203125 2.015625 -29.296875 C 1.722656 -29.398438 1.460938 -29.535156 1.234375 -29.703125 C 1.015625 -29.878906 0.828125 -30.09375 0.671875 -30.34375 C 0.523438 -30.550781 0.398438 -30.765625 0.296875 -30.984375 C 0.203125 -31.210938 0.128906 -31.4375 0.078125 -31.65625 C 0.0234375 -31.882812 0 -32.125 0 -32.375 C 0 -33.125 0.148438 -33.796875 0.453125 -34.390625 C 0.898438 -35.242188 1.597656 -35.769531 2.546875 -35.96875 C 3.992188 -36.269531 5.09375 -36.695312 5.84375 -37.25 C 6.59375 -37.84375 7.144531 -38.46875 7.5 -39.125 C 7.59375 -39.414062 7.710938 -39.75 7.859375 -40.125 C 8.015625 -40.5 8.191406 -40.945312 8.390625 -41.46875 C 8.585938 -42 8.789062 -42.585938 9 -43.234375 C 9.195312 -43.679688 9.484375 -44.082031 9.859375 -44.4375 C 10.234375 -44.789062 10.644531 -45.039062 11.09375 -45.1875 C 11.539062 -45.332031 11.988281 -45.40625 12.4375 -45.40625 C 13.082031 -45.40625 13.707031 -45.257812 14.3125 -44.96875 C 15.363281 -44.414062 15.890625 -43.585938 15.890625 -42.484375 L 15.890625 -42.34375 L 15.515625 -35.96875 L 22.1875 -36.34375 L 22.40625 -36.34375 C 23.351562 -36.34375 24.0625 -35.992188 24.53125 -35.296875 C 25.007812 -34.597656 25.25 -33.847656 25.25 -33.046875 C 25.25 -32.296875 25.125 -31.570312 24.875 -30.875 C 24.375 -29.570312 23.578125 -28.921875 22.484375 -28.921875 L 15.96875 -29.078125 L 15.96875 -8.25 C 15.96875 -6.945312 16.21875 -5.894531 16.71875 -5.09375 C 17.007812 -4.59375 17.582031 -4.34375 18.4375 -4.34375 C 19.082031 -4.34375 19.679688 -4.390625 20.234375 -4.484375 C 20.785156 -4.585938 21.3125 -4.765625 21.8125 -5.015625 L 21.875 -5.015625 C 22.726562 -5.367188 23.351562 -5.546875 23.75 -5.546875 C 24.195312 -5.546875 24.632812 -5.429688 25.0625 -5.203125 C 25.488281 -4.984375 25.828125 -4.695312 26.078125 -4.34375 C 26.378906 -4 26.65625 -3.523438 26.90625 -2.921875 C 26.90625 -2.921875 26.976562 -2.546875 27.125 -1.796875 C 27.125 -0.992188 26.75 -0.296875 26 0.296875 L 25.921875 0.375 L 25.859375 0.453125 C 24.203125 1.492188 22.648438 2.21875 21.203125 2.625 C 19.753906 2.96875 18.082031 3.140625 16.1875 3.140625 C 13.1875 3.140625 10.640625 2.039062 8.546875 -0.15625 Z M 8.546875 -0.15625 "/></g></g></g><g fill="#ff00ff" fill-opacity="1"><g transform="translate(606.059108, 94.701797)"><g><path d="M 10.046875 0.078125 C 7.140625 -1.671875 4.941406 -4.09375 3.453125 -7.1875 C 1.953125 -10.1875 1.203125 -13.507812 1.203125 -17.15625 C 1.203125 -20.40625 1.953125 -23.53125 3.453125 -26.53125 C 4.992188 -29.53125 7.164062 -31.976562 9.96875 -33.875 C 12.8125 -35.769531 16.082031 -36.71875 19.78125 -36.71875 C 24.726562 -36.71875 28.578125 -35.421875 31.328125 -32.828125 C 34.078125 -30.222656 35.648438 -26.75 36.046875 -22.40625 L 36.046875 -22.25 C 36.046875 -19.957031 35.320312 -18.3125 33.875 -17.3125 C 32.675781 -16.507812 31.023438 -16.109375 28.921875 -16.109375 L 12.671875 -16.109375 C 12.867188 -12.710938 13.691406 -10.015625 15.140625 -8.015625 C 16.679688 -5.816406 19.15625 -4.71875 22.5625 -4.71875 C 22.90625 -4.71875 23.25 -4.726562 23.59375 -4.75 C 23.945312 -4.78125 24.285156 -4.832031 24.609375 -4.90625 C 24.941406 -4.976562 25.242188 -5.050781 25.515625 -5.125 C 25.785156 -5.207031 26.046875 -5.3125 26.296875 -5.4375 C 26.546875 -5.5625 26.796875 -5.695312 27.046875 -5.84375 C 28.296875 -6.59375 29.519531 -7.941406 30.71875 -9.890625 L 30.796875 -10.109375 L 30.953125 -10.265625 C 31.253906 -10.515625 31.578125 -10.726562 31.921875 -10.90625 C 32.273438 -11.082031 32.648438 -11.171875 33.046875 -11.171875 C 33.191406 -11.171875 33.363281 -11.144531 33.5625 -11.09375 C 33.769531 -11.039062 33.957031 -10.988281 34.125 -10.9375 C 34.300781 -10.882812 34.460938 -10.820312 34.609375 -10.75 C 34.765625 -10.675781 34.894531 -10.613281 35 -10.5625 C 36.039062 -9.863281 36.5625 -8.890625 36.5625 -7.640625 C 36.5625 -7.335938 36.523438 -7.050781 36.453125 -6.78125 C 36.378906 -6.507812 36.269531 -6.222656 36.125 -5.921875 C 35.269531 -4.617188 34.289062 -3.414062 33.1875 -2.3125 C 32.09375 -1.21875 30.894531 -0.296875 29.59375 0.453125 C 26.945312 1.992188 23.953125 2.765625 20.609375 2.765625 C 16.515625 2.765625 12.992188 1.867188 10.046875 0.078125 Z M 22.9375 -22.703125 C 23.832031 -22.703125 24.40625 -22.800781 24.65625 -23 C 24.90625 -23.207031 25.054688 -23.5625 25.109375 -24.0625 C 25.109375 -24.351562 25.09375 -24.625 25.0625 -24.875 C 25.039062 -25.125 25.003906 -25.375 24.953125 -25.625 C 24.898438 -25.875 24.847656 -26.109375 24.796875 -26.328125 C 24.753906 -26.554688 24.691406 -26.769531 24.609375 -26.96875 C 24.535156 -27.175781 24.445312 -27.378906 24.34375 -27.578125 C 24.25 -27.773438 24.140625 -27.960938 24.015625 -28.140625 C 23.890625 -28.316406 23.753906 -28.503906 23.609375 -28.703125 C 23.160156 -29.253906 22.632812 -29.664062 22.03125 -29.9375 C 21.425781 -30.207031 20.675781 -30.34375 19.78125 -30.34375 C 17.832031 -30.34375 16.207031 -29.570312 14.90625 -28.03125 C 13.863281 -26.675781 13.164062 -24.898438 12.8125 -22.703125 Z M 22.9375 -22.703125 "/></g></g></g><g fill="#ff00ff" fill-opacity="1"><g transform="translate(643.675102, 94.701797)"><g><path d="M 1.34375 0.90625 C 0.894531 0.25 0.671875 -0.476562 0.671875 -1.28125 L 0.671875 -1.421875 C 0.773438 -2.722656 1.222656 -3.597656 2.015625 -4.046875 C 2.566406 -4.347656 3.316406 -4.5 4.265625 -4.5 C 4.617188 -4.5 4.921875 -4.519531 5.171875 -4.5625 C 5.421875 -4.613281 5.59375 -4.648438 5.6875 -4.671875 C 5.789062 -4.703125 5.84375 -4.71875 5.84375 -4.71875 C 6.039062 -4.914062 6.140625 -5.066406 6.140625 -5.171875 C 6.242188 -5.671875 6.296875 -6.519531 6.296875 -7.71875 L 6.296875 -24.875 C 6.296875 -26.070312 6.269531 -26.945312 6.21875 -27.5 C 6.164062 -27.601562 6.066406 -27.726562 5.921875 -27.875 C 5.921875 -27.875 5.90625 -27.875 5.875 -27.875 C 5.851562 -27.875 5.789062 -27.882812 5.6875 -27.90625 C 5.59375 -27.9375 5.484375 -27.960938 5.359375 -27.984375 C 5.234375 -28.015625 5.082031 -28.039062 4.90625 -28.0625 C 4.726562 -28.09375 4.539062 -28.109375 4.34375 -28.109375 C 3.394531 -28.109375 2.617188 -28.28125 2.015625 -28.625 C 1.117188 -29.175781 0.671875 -30.125 0.671875 -31.46875 C 0.671875 -32.164062 0.894531 -32.816406 1.34375 -33.421875 C 1.84375 -34.117188 2.566406 -34.546875 3.515625 -34.703125 C 4.117188 -34.796875 4.707031 -34.890625 5.28125 -34.984375 C 5.851562 -35.085938 6.398438 -35.203125 6.921875 -35.328125 C 7.453125 -35.453125 7.96875 -35.578125 8.46875 -35.703125 C 8.96875 -35.828125 9.425781 -35.953125 9.84375 -36.078125 C 10.269531 -36.203125 10.6875 -36.34375 11.09375 -36.5 L 11.171875 -36.5625 L 11.234375 -36.5625 C 12.140625 -36.8125 12.789062 -36.988281 13.1875 -37.09375 L 13.71875 -37.09375 C 14.613281 -37.09375 15.347656 -36.753906 15.921875 -36.078125 C 16.492188 -35.410156 16.78125 -34.648438 16.78125 -33.796875 L 16.78125 -33.265625 C 17.4375 -33.816406 18.078125 -34.28125 18.703125 -34.65625 C 19.328125 -35.03125 20.007812 -35.367188 20.75 -35.671875 C 22.5 -36.367188 24.472656 -36.71875 26.671875 -36.71875 C 28.023438 -36.71875 29.300781 -36.566406 30.5 -36.265625 C 31.695312 -35.960938 32.820312 -35.515625 33.875 -34.921875 C 34.175781 -34.722656 34.488281 -34.507812 34.8125 -34.28125 C 35.132812 -34.0625 35.441406 -33.8125 35.734375 -33.53125 C 36.035156 -33.257812 36.3125 -32.984375 36.5625 -32.703125 C 36.8125 -32.429688 37.039062 -32.171875 37.25 -31.921875 C 37.5 -32.117188 37.734375 -32.304688 37.953125 -32.484375 C 38.179688 -32.660156 38.378906 -32.8125 38.546875 -32.9375 C 38.722656 -33.0625 38.9375 -33.222656 39.1875 -33.421875 C 39.988281 -34.023438 40.789062 -34.550781 41.59375 -35 C 43.632812 -36.144531 46.234375 -36.71875 49.390625 -36.71875 C 53.328125 -36.71875 56.472656 -35.492188 58.828125 -33.046875 C 61.171875 -30.648438 62.34375 -27.53125 62.34375 -23.6875 L 62.34375 -7.71875 C 62.34375 -7.46875 62.34375 -7.226562 62.34375 -7 C 62.34375 -6.78125 62.34375 -6.582031 62.34375 -6.40625 C 62.34375 -6.226562 62.351562 -6.050781 62.375 -5.875 C 62.40625 -5.707031 62.421875 -5.570312 62.421875 -5.46875 C 62.421875 -5.375 62.445312 -5.273438 62.5 -5.171875 L 62.796875 -4.71875 C 62.992188 -4.570312 63.519531 -4.5 64.375 -4.5 L 64.828125 -4.5 C 65.617188 -4.5 66.289062 -4.296875 66.84375 -3.890625 C 67.144531 -3.640625 67.378906 -3.335938 67.546875 -2.984375 C 67.722656 -2.640625 67.820312 -2.390625 67.84375 -2.234375 C 67.875 -2.085938 67.914062 -1.816406 67.96875 -1.421875 L 67.96875 -1.28125 C 67.96875 -0.476562 67.742188 0.25 67.296875 0.90625 C 66.640625 1.695312 65.835938 2.09375 64.890625 2.09375 L 64.828125 2.09375 C 63.367188 2 61.988281 1.9375 60.6875 1.90625 C 59.394531 1.882812 58.175781 1.875 57.03125 1.875 C 56.582031 1.875 56.117188 1.875 55.640625 1.875 C 55.160156 1.875 54.671875 1.882812 54.171875 1.90625 C 53.679688 1.9375 53.171875 1.953125 52.640625 1.953125 C 52.117188 1.953125 51.582031 1.960938 51.03125 1.984375 C 50.476562 2.003906 49.90625 2.039062 49.3125 2.09375 L 49.234375 2.09375 C 48.179688 2.09375 47.359375 1.671875 46.765625 0.828125 C 46.359375 0.222656 46.15625 -0.476562 46.15625 -1.28125 L 46.15625 -1.421875 C 46.257812 -2.722656 46.710938 -3.597656 47.515625 -4.046875 C 47.765625 -4.191406 48.035156 -4.300781 48.328125 -4.375 C 48.628906 -4.457031 48.851562 -4.5 49 -4.5 C 49.15625 -4.5 49.410156 -4.5 49.765625 -4.5 C 50.609375 -4.5 51.128906 -4.570312 51.328125 -4.71875 C 51.523438 -4.914062 51.625 -5.066406 51.625 -5.171875 C 51.726562 -5.671875 51.78125 -6.519531 51.78125 -7.71875 L 51.78125 -23.609375 C 51.78125 -25.304688 51.28125 -26.578125 50.28125 -27.421875 C 49.1875 -28.367188 47.914062 -28.84375 46.46875 -28.84375 C 44.5625 -28.84375 43.0625 -28.421875 41.96875 -27.578125 C 40.914062 -26.773438 40.140625 -25.953125 39.640625 -25.109375 L 39.640625 -7.71875 C 39.640625 -7.613281 39.640625 -7.5 39.640625 -7.375 C 39.640625 -7.25 39.640625 -7.097656 39.640625 -6.921875 C 39.640625 -6.753906 39.640625 -6.566406 39.640625 -6.359375 C 39.640625 -6.160156 39.613281 -5.914062 39.5625 -5.625 C 39.5625 -5.175781 39.640625 -4.898438 39.796875 -4.796875 C 39.796875 -4.742188 39.84375 -4.703125 39.9375 -4.671875 C 40.039062 -4.648438 40.21875 -4.613281 40.46875 -4.5625 C 40.71875 -4.519531 41.015625 -4.5 41.359375 -4.5 L 41.8125 -4.5 C 42.707031 -4.5 43.429688 -4.273438 43.984375 -3.828125 C 44.535156 -3.328125 44.863281 -2.523438 44.96875 -1.421875 L 44.96875 -1.28125 C 44.96875 -0.476562 44.765625 0.222656 44.359375 0.828125 C 43.765625 1.671875 42.941406 2.09375 41.890625 2.09375 L 41.8125 2.09375 C 38.863281 1.945312 36.34375 1.875 34.25 1.875 C 33.25 1.875 32.125 1.882812 30.875 1.90625 C 29.625 1.9375 28.273438 2 26.828125 2.09375 L 26.75 2.09375 C 25.695312 2.09375 24.875 1.671875 24.28125 0.828125 C 23.882812 0.222656 23.6875 -0.476562 23.6875 -1.28125 L 23.6875 -1.421875 C 23.78125 -2.722656 24.226562 -3.597656 25.03125 -4.046875 C 25.582031 -4.347656 26.332031 -4.5 27.28125 -4.5 C 27.976562 -4.5 28.476562 -4.570312 28.78125 -4.71875 C 28.976562 -5.070312 29.078125 -5.472656 29.078125 -5.921875 C 29.023438 -6.117188 29 -6.316406 29 -6.515625 C 29 -6.710938 29 -6.882812 29 -7.03125 C 29 -7.1875 29 -7.3125 29 -7.40625 C 29 -7.507812 29 -7.613281 29 -7.71875 L 29 -23.609375 C 29 -24.003906 28.972656 -24.363281 28.921875 -24.6875 C 28.867188 -25.007812 28.804688 -25.296875 28.734375 -25.546875 C 28.660156 -25.796875 28.5625 -26.046875 28.4375 -26.296875 C 28.3125 -26.546875 28.171875 -26.757812 28.015625 -26.9375 C 27.867188 -27.113281 27.695312 -27.300781 27.5 -27.5 C 26.945312 -27.945312 26.367188 -28.28125 25.765625 -28.5 C 25.171875 -28.726562 24.5 -28.84375 23.75 -28.84375 C 21.851562 -28.84375 20.359375 -28.421875 19.265625 -27.578125 C 18.210938 -26.773438 17.410156 -25.925781 16.859375 -25.03125 L 16.859375 -7.71875 C 16.859375 -6.519531 16.910156 -5.671875 17.015625 -5.171875 L 17.3125 -4.71875 C 17.507812 -4.570312 18.035156 -4.5 18.890625 -4.5 L 19.328125 -4.5 C 20.128906 -4.5 20.804688 -4.296875 21.359375 -3.890625 C 22.003906 -3.390625 22.378906 -2.566406 22.484375 -1.421875 L 22.484375 -1.28125 C 22.484375 -1.070312 22.46875 -0.878906 22.4375 -0.703125 C 22.414062 -0.535156 22.378906 -0.363281 22.328125 -0.1875 C 22.273438 -0.0078125 22.210938 0.160156 22.140625 0.328125 C 22.066406 0.503906 21.976562 0.671875 21.875 0.828125 C 21.582031 1.222656 21.207031 1.53125 20.75 1.75 C 20.300781 1.976562 19.851562 2.09375 19.40625 2.09375 L 19.328125 2.09375 C 16.429688 1.945312 13.835938 1.875 11.546875 1.875 C 10.441406 1.875 9.238281 1.882812 7.9375 1.90625 C 6.644531 1.9375 5.273438 2 3.828125 2.09375 L 3.75 2.09375 C 2.800781 2.09375 2 1.695312 1.34375 0.90625 Z M 1.34375 0.90625 "/></g></g></g></g></g></g></svg>