<svg xmlns="http://www.w3.org/2000/svg" xmlns:xlink="http://www.w3.org/1999/xlink" width="488" zoomAndPan="magnify" viewBox="0 0 366 130.499996" height="174" preserveAspectRatio="xMidYMid meet" version="1.0"><defs><g/><clipPath id="a177d74ac3"><rect x="0" width="236" y="0" height="87"/></clipPath></defs><path fill="#ee6afa" d="M 53.308594 6.992188 C 55.386719 7.027344 57.320312 7.566406 59.117188 8.605469 C 71.207031 15.476562 83.328125 22.289062 95.484375 29.046875 C 98.480469 31.632812 99.019531 34.679688 97.097656 38.195312 C 95.050781 40.597656 92.503906 41.351562 89.457031 40.453125 C 77.765625 33.960938 66.074219 27.472656 54.386719 20.980469 C 42.695312 27.472656 31.003906 33.960938 19.3125 40.453125 C 15.164062 41.445312 12.332031 39.976562 10.8125 36.042969 C 10.207031 33.191406 11.03125 30.859375 13.285156 29.046875 C 25.730469 22.144531 38.136719 15.1875 50.511719 8.175781 C 51.417969 7.648438 52.351562 7.253906 53.308594 6.992188 Z M 53.308594 6.992188 " fill-opacity="0.994" fill-rule="evenodd"/><path fill="#ff00ff" d="M 54.167969 28.082031 C 64.484375 33.667969 74.742188 39.371094 84.941406 45.1875 C 87.0625 46.347656 89.324219 47.03125 91.71875 47.230469 C 91.824219 62.722656 91.859375 78.214844 91.824219 93.707031 C 92.976562 93.671875 94.121094 93.710938 95.269531 93.816406 C 97.398438 94.976562 97.9375 96.664062 96.882812 98.875 C 96.480469 99.347656 96.011719 99.742188 95.484375 100.054688 C 87.675781 100.375 79.859375 100.480469 72.027344 100.378906 C 72.132812 86.59375 72.027344 72.824219 71.707031 59.066406 C 71.070312 57.941406 70.105469 57.332031 68.800781 57.238281 C 59.117188 57.09375 49.4375 57.09375 39.753906 57.238281 C 38.539062 57.394531 37.644531 58.003906 37.0625 59.066406 C 36.742188 72.824219 36.636719 86.59375 36.742188 100.378906 C 28.910156 100.484375 21.089844 100.375 13.285156 100.054688 C 11.292969 98.824219 10.824219 97.136719 11.886719 95 C 12.304688 94.4375 12.84375 94.042969 13.5 93.816406 C 14.648438 93.710938 15.792969 93.671875 16.945312 93.707031 C 16.945312 78.214844 16.945312 62.722656 16.945312 47.230469 C 19.414062 47.136719 21.707031 46.457031 23.828125 45.1875 C 33.957031 39.480469 44.070312 33.777344 54.167969 28.082031 Z M 58.6875 73.914062 C 60.828125 73.941406 62.046875 75.019531 62.347656 77.140625 C 61.722656 79.808594 60.144531 80.636719 57.613281 79.613281 C 56.242188 78.339844 55.992188 76.871094 56.859375 75.203125 C 57.433594 74.6875 58.042969 74.257812 58.6875 73.914062 Z M 58.6875 73.914062 " fill-opacity="0.996" fill-rule="evenodd"/><path fill="#ee6bfa" d="M 42.980469 63.585938 C 50.582031 63.585938 58.1875 63.585938 65.789062 63.585938 C 65.789062 75.847656 65.789062 88.113281 65.789062 100.378906 C 58.1875 100.378906 50.582031 100.378906 42.980469 100.378906 C 42.980469 88.113281 42.980469 75.847656 42.980469 63.585938 Z M 58.6875 73.914062 C 58.042969 74.257812 57.433594 74.6875 56.859375 75.203125 C 55.992188 76.871094 56.242188 78.339844 57.613281 79.613281 C 60.144531 80.636719 61.722656 79.808594 62.347656 77.140625 C 62.046875 75.019531 60.828125 73.941406 58.6875 73.914062 Z M 58.6875 73.914062 " fill-opacity="0.985" fill-rule="evenodd"/><g transform="matrix(1, 0, 0, 1, 111, 26)"><g clip-path="url(#a177d74ac3)"><g fill="#ff00ff" fill-opacity="1"><g transform="translate(1.234279, 68.701797)"><g><path d="M 2.015625 0.828125 C 1.773438 0.472656 1.601562 0.109375 1.5 -0.265625 C 1.394531 -0.640625 1.34375 -1.023438 1.34375 -1.421875 L 1.34375 -1.578125 C 1.34375 -1.578125 1.34375 -1.625 1.34375 -1.71875 C 1.445312 -3.019531 1.898438 -3.894531 2.703125 -4.34375 C 3.242188 -4.695312 4.039062 -4.875 5.09375 -4.875 C 6.144531 -4.875 6.84375 -5 7.1875 -5.25 C 7.539062 -5.5 7.742188 -5.796875 7.796875 -6.140625 C 7.941406 -6.796875 8.039062 -7.671875 8.09375 -8.765625 L 8.09375 -38.4375 C 8.039062 -39.59375 7.941406 -40.46875 7.796875 -41.0625 C 7.742188 -41.414062 7.539062 -41.71875 7.1875 -41.96875 C 7.039062 -42.0625 6.789062 -42.160156 6.4375 -42.265625 C 6.09375 -42.367188 5.644531 -42.421875 5.09375 -42.421875 L 4.640625 -42.421875 C 4.441406 -42.421875 4.265625 -42.429688 4.109375 -42.453125 C 3.960938 -42.472656 3.773438 -42.492188 3.546875 -42.515625 C 3.328125 -42.546875 3.117188 -42.609375 2.921875 -42.703125 C 2.722656 -42.804688 2.546875 -42.957031 2.390625 -43.15625 C 2.296875 -43.207031 2.195312 -43.28125 2.09375 -43.375 C 2 -43.476562 1.925781 -43.566406 1.875 -43.640625 C 1.820312 -43.722656 1.769531 -43.8125 1.71875 -43.90625 C 1.675781 -44.007812 1.640625 -44.097656 1.609375 -44.171875 C 1.585938 -44.242188 1.5625 -44.34375 1.53125 -44.46875 C 1.507812 -44.59375 1.484375 -44.679688 1.453125 -44.734375 C 1.429688 -44.785156 1.421875 -44.875 1.421875 -45 C 1.421875 -45.125 1.40625 -45.210938 1.375 -45.265625 C 1.351562 -45.316406 1.34375 -45.390625 1.34375 -45.484375 C 1.34375 -45.585938 1.34375 -45.664062 1.34375 -45.71875 L 1.34375 -45.859375 C 1.394531 -46.710938 1.617188 -47.460938 2.015625 -48.109375 C 2.222656 -48.359375 2.460938 -48.582031 2.734375 -48.78125 C 3.003906 -48.976562 3.300781 -49.128906 3.625 -49.234375 C 3.957031 -49.335938 4.273438 -49.390625 4.578125 -49.390625 L 4.640625 -49.390625 C 6.242188 -49.285156 7.78125 -49.21875 9.25 -49.1875 C 10.726562 -49.164062 12.140625 -49.15625 13.484375 -49.15625 L 26.375 -49.15625 C 30.519531 -49.101562 33.992188 -48.429688 36.796875 -47.140625 C 37.347656 -46.890625 37.875 -46.625 38.375 -46.34375 C 38.875 -46.070312 39.359375 -45.757812 39.828125 -45.40625 C 40.304688 -45.0625 40.742188 -44.710938 41.140625 -44.359375 C 41.535156 -44.015625 41.910156 -43.640625 42.265625 -43.234375 C 42.617188 -42.835938 42.941406 -42.414062 43.234375 -41.96875 C 44.640625 -39.820312 45.34375 -37.523438 45.34375 -35.078125 C 45.34375 -33.472656 45.015625 -31.921875 44.359375 -30.421875 C 43.710938 -28.921875 42.789062 -27.523438 41.59375 -26.234375 C 41.09375 -25.734375 40.554688 -25.242188 39.984375 -24.765625 C 39.410156 -24.296875 38.8125 -23.859375 38.1875 -23.453125 C 37.5625 -23.054688 36.921875 -22.691406 36.265625 -22.359375 C 35.617188 -22.035156 34.921875 -21.75 34.171875 -21.5 C 36.265625 -18.101562 38.140625 -15.234375 39.796875 -12.890625 C 41.441406 -10.585938 43.210938 -8.414062 45.109375 -6.375 C 45.660156 -5.914062 46.207031 -5.570312 46.75 -5.34375 C 47.300781 -5.125 47.878906 -4.96875 48.484375 -4.875 C 48.628906 -4.875 48.851562 -4.847656 49.15625 -4.796875 C 50.007812 -4.742188 50.707031 -4.421875 51.25 -3.828125 C 51.550781 -3.472656 51.765625 -3.09375 51.890625 -2.6875 C 52.015625 -2.289062 52.078125 -1.867188 52.078125 -1.421875 C 52.078125 -0.578125 51.851562 0.171875 51.40625 0.828125 C 51.300781 0.921875 51.195312 1.019531 51.09375 1.125 C 51 1.226562 50.898438 1.328125 50.796875 1.421875 C 50.703125 1.523438 50.59375 1.613281 50.46875 1.6875 C 50.34375 1.757812 50.21875 1.820312 50.09375 1.875 C 49.96875 1.925781 49.828125 1.960938 49.671875 1.984375 C 49.523438 2.003906 49.378906 2.023438 49.234375 2.046875 C 49.085938 2.078125 48.960938 2.09375 48.859375 2.09375 L 46.84375 2.015625 C 44.632812 1.921875 43.054688 1.875 42.109375 1.875 L 41.734375 1.875 C 39.492188 1.375 37.546875 0.550781 35.890625 -0.59375 C 35.347656 -1 34.8125 -1.453125 34.28125 -1.953125 C 33.757812 -2.453125 33.25 -2.988281 32.75 -3.5625 C 32.25 -4.132812 31.75 -4.742188 31.25 -5.390625 C 29.75 -7.335938 27.703125 -10.488281 25.109375 -14.84375 L 23.75 -17.015625 C 23.601562 -17.210938 23.46875 -17.394531 23.34375 -17.5625 C 23.21875 -17.738281 23.101562 -17.890625 23 -18.015625 C 22.90625 -18.140625 22.804688 -18.253906 22.703125 -18.359375 C 22.609375 -18.460938 22.507812 -18.535156 22.40625 -18.578125 C 22.300781 -18.628906 22.226562 -18.679688 22.1875 -18.734375 C 21.78125 -18.984375 20.90625 -19.109375 19.5625 -19.109375 L 19.265625 -19.109375 L 19.265625 -8.765625 C 19.304688 -8.171875 19.335938 -7.660156 19.359375 -7.234375 C 19.390625 -6.804688 19.457031 -6.441406 19.5625 -6.140625 C 19.613281 -5.992188 19.675781 -5.84375 19.75 -5.6875 C 19.820312 -5.539062 19.957031 -5.394531 20.15625 -5.25 C 20.507812 -5 21.207031 -4.875 22.25 -4.875 L 22.703125 -4.875 C 23.109375 -4.875 23.484375 -4.820312 23.828125 -4.71875 C 24.179688 -4.625 24.53125 -4.453125 24.875 -4.203125 C 25.53125 -3.703125 25.90625 -2.828125 26 -1.578125 L 26 -1.421875 C 26 -0.578125 25.773438 0.171875 25.328125 0.828125 C 25.128906 1.078125 24.890625 1.300781 24.609375 1.5 C 24.335938 1.695312 24.039062 1.84375 23.71875 1.9375 C 23.394531 2.039062 23.082031 2.09375 22.78125 2.09375 L 22.703125 2.09375 C 19.503906 1.945312 16.40625 1.875 13.40625 1.875 C 10.8125 1.875 7.890625 1.945312 4.640625 2.09375 L 4.578125 2.09375 C 3.472656 2.09375 2.617188 1.671875 2.015625 0.828125 Z M 23.984375 -25.78125 C 27.273438 -25.78125 29.644531 -26.453125 31.09375 -27.796875 C 32.539062 -29.148438 33.265625 -31.347656 33.265625 -34.390625 C 33.265625 -36.742188 32.476562 -38.707031 30.90625 -40.28125 C 29.332031 -41.851562 26.570312 -42.640625 22.625 -42.640625 C 21.476562 -42.640625 20.65625 -42.515625 20.15625 -42.265625 C 19.851562 -42.160156 19.65625 -41.9375 19.5625 -41.59375 C 19.457031 -41.34375 19.378906 -40.914062 19.328125 -40.3125 C 19.285156 -39.71875 19.265625 -39.046875 19.265625 -38.296875 L 19.265625 -25.78125 Z M 23.984375 -25.78125 "/></g></g></g><g fill="#ff00ff" fill-opacity="1"><g transform="translate(51.513885, 68.701797)"><g><path d="M 10.046875 0.078125 C 7.140625 -1.671875 4.941406 -4.09375 3.453125 -7.1875 C 1.953125 -10.1875 1.203125 -13.507812 1.203125 -17.15625 C 1.203125 -20.40625 1.953125 -23.53125 3.453125 -26.53125 C 4.992188 -29.53125 7.164062 -31.976562 9.96875 -33.875 C 12.8125 -35.769531 16.082031 -36.71875 19.78125 -36.71875 C 24.726562 -36.71875 28.578125 -35.421875 31.328125 -32.828125 C 34.078125 -30.222656 35.648438 -26.75 36.046875 -22.40625 L 36.046875 -22.25 C 36.046875 -19.957031 35.320312 -18.3125 33.875 -17.3125 C 32.675781 -16.507812 31.023438 -16.109375 28.921875 -16.109375 L 12.671875 -16.109375 C 12.867188 -12.710938 13.691406 -10.015625 15.140625 -8.015625 C 16.679688 -5.816406 19.15625 -4.71875 22.5625 -4.71875 C 22.90625 -4.71875 23.25 -4.726562 23.59375 -4.75 C 23.945312 -4.78125 24.285156 -4.832031 24.609375 -4.90625 C 24.941406 -4.976562 25.242188 -5.050781 25.515625 -5.125 C 25.785156 -5.207031 26.046875 -5.3125 26.296875 -5.4375 C 26.546875 -5.5625 26.796875 -5.695312 27.046875 -5.84375 C 28.296875 -6.59375 29.519531 -7.941406 30.71875 -9.890625 L 30.796875 -10.109375 L 30.953125 -10.265625 C 31.253906 -10.515625 31.578125 -10.726562 31.921875 -10.90625 C 32.273438 -11.082031 32.648438 -11.171875 33.046875 -11.171875 C 33.191406 -11.171875 33.363281 -11.144531 33.5625 -11.09375 C 33.769531 -11.039062 33.957031 -10.988281 34.125 -10.9375 C 34.300781 -10.882812 34.460938 -10.820312 34.609375 -10.75 C 34.765625 -10.675781 34.894531 -10.613281 35 -10.5625 C 36.039062 -9.863281 36.5625 -8.890625 36.5625 -7.640625 C 36.5625 -7.335938 36.523438 -7.050781 36.453125 -6.78125 C 36.378906 -6.507812 36.269531 -6.222656 36.125 -5.921875 C 35.269531 -4.617188 34.289062 -3.414062 33.1875 -2.3125 C 32.09375 -1.21875 30.894531 -0.296875 29.59375 0.453125 C 26.945312 1.992188 23.953125 2.765625 20.609375 2.765625 C 16.515625 2.765625 12.992188 1.867188 10.046875 0.078125 Z M 22.9375 -22.703125 C 23.832031 -22.703125 24.40625 -22.800781 24.65625 -23 C 24.90625 -23.207031 25.054688 -23.5625 25.109375 -24.0625 C 25.109375 -24.351562 25.09375 -24.625 25.0625 -24.875 C 25.039062 -25.125 25.003906 -25.375 24.953125 -25.625 C 24.898438 -25.875 24.847656 -26.109375 24.796875 -26.328125 C 24.753906 -26.554688 24.691406 -26.769531 24.609375 -26.96875 C 24.535156 -27.175781 24.445312 -27.378906 24.34375 -27.578125 C 24.25 -27.773438 24.140625 -27.960938 24.015625 -28.140625 C 23.890625 -28.316406 23.753906 -28.503906 23.609375 -28.703125 C 23.160156 -29.253906 22.632812 -29.664062 22.03125 -29.9375 C 21.425781 -30.207031 20.675781 -30.34375 19.78125 -30.34375 C 17.832031 -30.34375 16.207031 -29.570312 14.90625 -28.03125 C 13.863281 -26.675781 13.164062 -24.898438 12.8125 -22.703125 Z M 22.9375 -22.703125 "/></g></g></g><g fill="#ff00ff" fill-opacity="1"><g transform="translate(89.129921, 68.701797)"><g><path d="M 1.953125 0.828125 C 1.703125 0.472656 1.523438 0.109375 1.421875 -0.265625 C 1.328125 -0.640625 1.28125 -1.023438 1.28125 -1.421875 L 1.28125 -1.578125 C 1.28125 -1.578125 1.28125 -1.625 1.28125 -1.71875 C 1.375 -3.019531 1.820312 -3.894531 2.625 -4.34375 C 3.175781 -4.695312 3.972656 -4.875 5.015625 -4.875 C 6.066406 -4.875 6.769531 -5 7.125 -5.25 C 7.46875 -5.5 7.664062 -5.796875 7.71875 -6.140625 C 7.863281 -6.796875 7.960938 -7.671875 8.015625 -8.765625 L 8.015625 -38.515625 C 7.960938 -39.617188 7.863281 -40.492188 7.71875 -41.140625 C 7.664062 -41.285156 7.601562 -41.429688 7.53125 -41.578125 C 7.457031 -41.734375 7.320312 -41.863281 7.125 -41.96875 C 6.769531 -42.269531 6.066406 -42.421875 5.015625 -42.421875 L 4.578125 -42.421875 C 4.367188 -42.421875 4.191406 -42.429688 4.046875 -42.453125 C 3.898438 -42.472656 3.710938 -42.492188 3.484375 -42.515625 C 3.253906 -42.546875 3.039062 -42.609375 2.84375 -42.703125 C 2.644531 -42.804688 2.472656 -42.957031 2.328125 -43.15625 C 2.171875 -43.257812 2.054688 -43.347656 1.984375 -43.421875 C 1.910156 -43.492188 1.835938 -43.59375 1.765625 -43.71875 C 1.691406 -43.84375 1.628906 -43.941406 1.578125 -44.015625 C 1.523438 -44.097656 1.484375 -44.203125 1.453125 -44.328125 C 1.429688 -44.453125 1.40625 -44.550781 1.375 -44.625 C 1.351562 -44.695312 1.34375 -44.796875 1.34375 -44.921875 C 1.34375 -45.046875 1.332031 -45.132812 1.3125 -45.1875 C 1.289062 -45.238281 1.28125 -45.335938 1.28125 -45.484375 C 1.28125 -45.640625 1.28125 -45.71875 1.28125 -45.71875 L 1.28125 -45.859375 C 1.28125 -46.054688 1.289062 -46.253906 1.3125 -46.453125 C 1.332031 -46.660156 1.367188 -46.847656 1.421875 -47.015625 C 1.472656 -47.191406 1.546875 -47.367188 1.640625 -47.546875 C 1.742188 -47.722656 1.847656 -47.910156 1.953125 -48.109375 C 2.148438 -48.359375 2.382812 -48.582031 2.65625 -48.78125 C 2.9375 -48.976562 3.238281 -49.128906 3.5625 -49.234375 C 3.882812 -49.335938 4.195312 -49.390625 4.5 -49.390625 L 4.578125 -49.390625 C 6.171875 -49.285156 7.703125 -49.21875 9.171875 -49.1875 C 10.648438 -49.164062 12.039062 -49.15625 13.34375 -49.15625 L 23.90625 -49.15625 C 24.601562 -49.15625 25.273438 -49.140625 25.921875 -49.109375 C 26.578125 -49.085938 27.203125 -49.050781 27.796875 -49 C 28.398438 -48.957031 28.960938 -48.894531 29.484375 -48.8125 C 30.015625 -48.738281 30.53125 -48.628906 31.03125 -48.484375 C 32.925781 -48.035156 34.644531 -47.335938 36.1875 -46.390625 C 36.9375 -45.890625 37.625 -45.273438 38.25 -44.546875 C 38.875 -43.828125 39.410156 -43.039062 39.859375 -42.1875 C 40.765625 -40.4375 41.21875 -38.539062 41.21875 -36.5 C 41.21875 -34.695312 40.90625 -33.054688 40.28125 -31.578125 C 39.65625 -30.109375 38.742188 -28.828125 37.546875 -27.734375 C 36.890625 -27.128906 36.164062 -26.578125 35.375 -26.078125 C 36.019531 -25.828125 36.59375 -25.578125 37.09375 -25.328125 C 39.539062 -24.179688 41.441406 -22.609375 42.796875 -20.609375 C 43.492188 -19.554688 44.015625 -18.476562 44.359375 -17.375 C 44.710938 -16.28125 44.890625 -15.132812 44.890625 -13.9375 C 44.890625 -13.1875 44.835938 -12.445312 44.734375 -11.71875 C 44.640625 -11 44.488281 -10.300781 44.28125 -9.625 C 44.082031 -8.957031 43.84375 -8.320312 43.5625 -7.71875 C 43.289062 -7.113281 42.957031 -6.523438 42.5625 -5.953125 C 42.164062 -5.378906 41.71875 -4.84375 41.21875 -4.34375 C 38.914062 -2.050781 36.039062 -0.40625 32.59375 0.59375 C 29.300781 1.5 25.90625 1.953125 22.40625 1.953125 L 13.40625 1.875 C 10.757812 1.875 7.816406 1.945312 4.578125 2.09375 L 4.5 2.09375 C 3.394531 2.09375 2.546875 1.671875 1.953125 0.828125 Z M 20.453125 -28.546875 C 22.304688 -28.546875 23.929688 -28.671875 25.328125 -28.921875 C 26.378906 -29.171875 27.328125 -29.796875 28.171875 -30.796875 C 29.023438 -31.691406 29.453125 -33.289062 29.453125 -35.59375 C 29.453125 -38.144531 28.925781 -39.957031 27.875 -41.03125 C 26.820312 -42.101562 25.050781 -42.640625 22.5625 -42.640625 L 19.1875 -42.640625 L 19.1875 -28.546875 Z M 30.421875 -7.125 C 32.117188 -8.519531 32.992188 -10.914062 33.046875 -14.3125 C 32.796875 -16.40625 31.769531 -18.15625 29.96875 -19.5625 C 28.019531 -21.0625 24.828125 -21.8125 20.390625 -21.8125 L 19.1875 -21.8125 L 19.1875 -8.765625 C 19.1875 -7.316406 19.3125 -6.289062 19.5625 -5.6875 C 19.707031 -5.34375 19.859375 -5.144531 20.015625 -5.09375 C 20.160156 -5.039062 20.34375 -4.988281 20.5625 -4.9375 C 20.789062 -4.894531 21.09375 -4.859375 21.46875 -4.828125 C 21.84375 -4.804688 22.253906 -4.796875 22.703125 -4.796875 C 25.953125 -4.847656 28.523438 -5.625 30.421875 -7.125 Z M 30.421875 -7.125 "/></g></g></g><g fill="#ff00ff" fill-opacity="1"><g transform="translate(135.662906, 68.701797)"><g><path d="M 10.046875 0.078125 C 7.140625 -1.671875 4.941406 -4.09375 3.453125 -7.1875 C 1.953125 -10.1875 1.203125 -13.507812 1.203125 -17.15625 C 1.203125 -20.40625 1.953125 -23.53125 3.453125 -26.53125 C 4.992188 -29.53125 7.164062 -31.976562 9.96875 -33.875 C 12.8125 -35.769531 16.082031 -36.71875 19.78125 -36.71875 C 24.726562 -36.71875 28.578125 -35.421875 31.328125 -32.828125 C 34.078125 -30.222656 35.648438 -26.75 36.046875 -22.40625 L 36.046875 -22.25 C 36.046875 -19.957031 35.320312 -18.3125 33.875 -17.3125 C 32.675781 -16.507812 31.023438 -16.109375 28.921875 -16.109375 L 12.671875 -16.109375 C 12.867188 -12.710938 13.691406 -10.015625 15.140625 -8.015625 C 16.679688 -5.816406 19.15625 -4.71875 22.5625 -4.71875 C 22.90625 -4.71875 23.25 -4.726562 23.59375 -4.75 C 23.945312 -4.78125 24.285156 -4.832031 24.609375 -4.90625 C 24.941406 -4.976562 25.242188 -5.050781 25.515625 -5.125 C 25.785156 -5.207031 26.046875 -5.3125 26.296875 -5.4375 C 26.546875 -5.5625 26.796875 -5.695312 27.046875 -5.84375 C 28.296875 -6.59375 29.519531 -7.941406 30.71875 -9.890625 L 30.796875 -10.109375 L 30.953125 -10.265625 C 31.253906 -10.515625 31.578125 -10.726562 31.921875 -10.90625 C 32.273438 -11.082031 32.648438 -11.171875 33.046875 -11.171875 C 33.191406 -11.171875 33.363281 -11.144531 33.5625 -11.09375 C 33.769531 -11.039062 33.957031 -10.988281 34.125 -10.9375 C 34.300781 -10.882812 34.460938 -10.820312 34.609375 -10.75 C 34.765625 -10.675781 34.894531 -10.613281 35 -10.5625 C 36.039062 -9.863281 36.5625 -8.890625 36.5625 -7.640625 C 36.5625 -7.335938 36.523438 -7.050781 36.453125 -6.78125 C 36.378906 -6.507812 36.269531 -6.222656 36.125 -5.921875 C 35.269531 -4.617188 34.289062 -3.414062 33.1875 -2.3125 C 32.09375 -1.21875 30.894531 -0.296875 29.59375 0.453125 C 26.945312 1.992188 23.953125 2.765625 20.609375 2.765625 C 16.515625 2.765625 12.992188 1.867188 10.046875 0.078125 Z M 22.9375 -22.703125 C 23.832031 -22.703125 24.40625 -22.800781 24.65625 -23 C 24.90625 -23.207031 25.054688 -23.5625 25.109375 -24.0625 C 25.109375 -24.351562 25.09375 -24.625 25.0625 -24.875 C 25.039062 -25.125 25.003906 -25.375 24.953125 -25.625 C 24.898438 -25.875 24.847656 -26.109375 24.796875 -26.328125 C 24.753906 -26.554688 24.691406 -26.769531 24.609375 -26.96875 C 24.535156 -27.175781 24.445312 -27.378906 24.34375 -27.578125 C 24.25 -27.773438 24.140625 -27.960938 24.015625 -28.140625 C 23.890625 -28.316406 23.753906 -28.503906 23.609375 -28.703125 C 23.160156 -29.253906 22.632812 -29.664062 22.03125 -29.9375 C 21.425781 -30.207031 20.675781 -30.34375 19.78125 -30.34375 C 17.832031 -30.34375 16.207031 -29.570312 14.90625 -28.03125 C 13.863281 -26.675781 13.164062 -24.898438 12.8125 -22.703125 Z M 22.9375 -22.703125 "/></g></g></g><g fill="#ff00ff" fill-opacity="1"><g transform="translate(173.278943, 68.701797)"><g><path d="M 5.6875 0.453125 C 2.539062 -1.296875 0.96875 -3.820312 0.96875 -7.125 C 0.96875 -9.070312 1.59375 -10.671875 2.84375 -11.921875 C 3.445312 -12.566406 4.160156 -13.050781 4.984375 -13.375 C 5.804688 -13.695312 6.664062 -13.859375 7.5625 -13.859375 C 7.863281 -13.859375 8.148438 -13.832031 8.421875 -13.78125 C 8.703125 -13.738281 8.976562 -13.675781 9.25 -13.59375 C 9.53125 -13.519531 9.796875 -13.421875 10.046875 -13.296875 C 10.296875 -13.171875 10.546875 -13.007812 10.796875 -12.8125 C 10.835938 -12.8125 10.945312 -12.75 11.125 -12.625 C 11.300781 -12.5 11.425781 -12.398438 11.5 -12.328125 C 11.570312 -12.253906 11.679688 -12.140625 11.828125 -11.984375 C 11.984375 -11.835938 12.097656 -11.6875 12.171875 -11.53125 C 12.253906 -11.382812 12.332031 -11.195312 12.40625 -10.96875 C 12.476562 -10.75 12.515625 -10.515625 12.515625 -10.265625 C 12.515625 -9.816406 12.460938 -9.441406 12.359375 -9.140625 C 12.265625 -8.835938 12.15625 -8.648438 12.03125 -8.578125 C 11.90625 -8.503906 11.738281 -8.40625 11.53125 -8.28125 C 11.332031 -8.15625 11.210938 -8.066406 11.171875 -8.015625 C 10.921875 -7.765625 10.796875 -7.34375 10.796875 -6.75 C 10.796875 -5.945312 11.191406 -5.296875 11.984375 -4.796875 C 13.035156 -4.097656 14.6875 -3.75 16.9375 -3.75 C 18.832031 -3.75 20.28125 -4.125 21.28125 -4.875 C 22.132812 -5.519531 22.5625 -6.46875 22.5625 -7.71875 C 22.5625 -8.113281 22.507812 -8.445312 22.40625 -8.71875 C 22.300781 -9 22.148438 -9.265625 21.953125 -9.515625 C 21.648438 -9.816406 21.320312 -10.078125 20.96875 -10.296875 C 20.625 -10.523438 20.226562 -10.738281 19.78125 -10.9375 C 19.28125 -11.132812 18.644531 -11.359375 17.875 -11.609375 C 17.101562 -11.859375 16.238281 -12.132812 15.28125 -12.4375 C 14.03125 -12.789062 12.878906 -13.15625 11.828125 -13.53125 C 10.785156 -13.90625 9.863281 -14.265625 9.0625 -14.609375 C 8.113281 -15.015625 7.253906 -15.523438 6.484375 -16.140625 C 5.710938 -16.765625 5 -17.503906 4.34375 -18.359375 C 3 -20.054688 2.328125 -22.253906 2.328125 -24.953125 C 2.328125 -27.503906 3.125 -29.703125 4.71875 -31.546875 C 5.46875 -32.441406 6.328125 -33.210938 7.296875 -33.859375 C 8.273438 -34.515625 9.363281 -35.066406 10.5625 -35.515625 C 11.3125 -35.765625 12.070312 -35.976562 12.84375 -36.15625 C 13.625 -36.332031 14.414062 -36.46875 15.21875 -36.5625 C 16.0625 -36.664062 16.910156 -36.71875 17.765625 -36.71875 C 21.054688 -36.71875 23.925781 -36.019531 26.375 -34.625 C 29.175781 -32.96875 30.578125 -30.671875 30.578125 -27.734375 C 30.578125 -25.929688 30 -24.378906 28.84375 -23.078125 C 27.644531 -21.679688 26.097656 -20.984375 24.203125 -20.984375 C 23.003906 -20.984375 21.929688 -21.332031 20.984375 -22.03125 C 20.929688 -22.03125 20.816406 -22.09375 20.640625 -22.21875 C 20.472656 -22.34375 20.347656 -22.441406 20.265625 -22.515625 C 20.191406 -22.585938 20.078125 -22.695312 19.921875 -22.84375 C 19.773438 -23 19.664062 -23.148438 19.59375 -23.296875 C 19.519531 -23.453125 19.445312 -23.640625 19.375 -23.859375 C 19.300781 -24.085938 19.265625 -24.328125 19.265625 -24.578125 C 19.265625 -25.023438 19.328125 -25.398438 19.453125 -25.703125 C 19.578125 -26.003906 19.703125 -26.191406 19.828125 -26.265625 C 19.953125 -26.335938 20.085938 -26.398438 20.234375 -26.453125 C 20.378906 -26.503906 20.476562 -26.554688 20.53125 -26.609375 C 20.78125 -26.859375 21.03125 -27.15625 21.28125 -27.5 C 21.382812 -27.601562 21.4375 -27.78125 21.4375 -28.03125 C 21.382812 -28.726562 21.007812 -29.273438 20.3125 -29.671875 C 19.363281 -30.222656 18.210938 -30.5 16.859375 -30.5 L 15.96875 -30.421875 C 15.363281 -30.367188 14.8125 -30.269531 14.3125 -30.125 C 13.8125 -29.976562 13.335938 -29.753906 12.890625 -29.453125 C 12.035156 -28.953125 11.609375 -28.273438 11.609375 -27.421875 C 11.609375 -26.878906 11.660156 -26.429688 11.765625 -26.078125 C 11.867188 -25.722656 11.992188 -25.421875 12.140625 -25.171875 C 12.285156 -25.023438 12.429688 -24.875 12.578125 -24.71875 C 12.734375 -24.570312 12.9375 -24.425781 13.1875 -24.28125 C 13.4375 -24.132812 13.738281 -23.984375 14.09375 -23.828125 C 14.632812 -23.578125 15.367188 -23.289062 16.296875 -22.96875 C 17.222656 -22.644531 18.335938 -22.28125 19.640625 -21.875 C 20.285156 -21.625 20.90625 -21.398438 21.5 -21.203125 C 22.101562 -21.003906 22.679688 -20.804688 23.234375 -20.609375 C 23.785156 -20.410156 24.296875 -20.207031 24.765625 -20 C 25.242188 -19.800781 25.679688 -19.601562 26.078125 -19.40625 C 27.878906 -18.5625 29.300781 -17.390625 30.34375 -15.890625 C 31.445312 -14.335938 32 -12.363281 32 -9.96875 C 32 -8.769531 31.8125 -7.609375 31.4375 -6.484375 C 31.0625 -5.359375 30.523438 -4.296875 29.828125 -3.296875 C 29.128906 -2.296875 28.300781 -1.421875 27.34375 -0.671875 C 26.394531 0.078125 25.320312 0.703125 24.125 1.203125 C 22.375 1.992188 20.453125 2.492188 18.359375 2.703125 C 17.710938 2.742188 17.039062 2.765625 16.34375 2.765625 C 11.988281 2.765625 8.4375 1.992188 5.6875 0.453125 Z M 5.6875 0.453125 "/></g></g></g><g fill="#ff00ff" fill-opacity="1"><g transform="translate(206.473979, 68.701797)"><g><path d="M 8.546875 -0.15625 C 6.441406 -2.300781 5.390625 -5.296875 5.390625 -9.140625 L 5.390625 -29.21875 L 2.921875 -29.15625 C 2.617188 -29.15625 2.316406 -29.203125 2.015625 -29.296875 C 1.722656 -29.398438 1.460938 -29.535156 1.234375 -29.703125 C 1.015625 -29.878906 0.828125 -30.09375 0.671875 -30.34375 C 0.523438 -30.550781 0.398438 -30.765625 0.296875 -30.984375 C 0.203125 -31.210938 0.128906 -31.4375 0.078125 -31.65625 C 0.0234375 -31.882812 0 -32.125 0 -32.375 C 0 -33.125 0.148438 -33.796875 0.453125 -34.390625 C 0.898438 -35.242188 1.597656 -35.769531 2.546875 -35.96875 C 3.992188 -36.269531 5.09375 -36.695312 5.84375 -37.25 C 6.59375 -37.84375 7.144531 -38.46875 7.5 -39.125 C 7.59375 -39.414062 7.710938 -39.75 7.859375 -40.125 C 8.015625 -40.5 8.191406 -40.945312 8.390625 -41.46875 C 8.585938 -42 8.789062 -42.585938 9 -43.234375 C 9.195312 -43.679688 9.484375 -44.082031 9.859375 -44.4375 C 10.234375 -44.789062 10.644531 -45.039062 11.09375 -45.1875 C 11.539062 -45.332031 11.988281 -45.40625 12.4375 -45.40625 C 13.082031 -45.40625 13.707031 -45.257812 14.3125 -44.96875 C 15.363281 -44.414062 15.890625 -43.585938 15.890625 -42.484375 L 15.890625 -42.34375 L 15.515625 -35.96875 L 22.1875 -36.34375 L 22.40625 -36.34375 C 23.351562 -36.34375 24.0625 -35.992188 24.53125 -35.296875 C 25.007812 -34.597656 25.25 -33.847656 25.25 -33.046875 C 25.25 -32.296875 25.125 -31.570312 24.875 -30.875 C 24.375 -29.570312 23.578125 -28.921875 22.484375 -28.921875 L 15.96875 -29.078125 L 15.96875 -8.25 C 15.96875 -6.945312 16.21875 -5.894531 16.71875 -5.09375 C 17.007812 -4.59375 17.582031 -4.34375 18.4375 -4.34375 C 19.082031 -4.34375 19.679688 -4.390625 20.234375 -4.484375 C 20.785156 -4.585938 21.3125 -4.765625 21.8125 -5.015625 L 21.875 -5.015625 C 22.726562 -5.367188 23.351562 -5.546875 23.75 -5.546875 C 24.195312 -5.546875 24.632812 -5.429688 25.0625 -5.203125 C 25.488281 -4.984375 25.828125 -4.695312 26.078125 -4.34375 C 26.378906 -4 26.65625 -3.523438 26.90625 -2.921875 C 26.90625 -2.921875 26.976562 -2.546875 27.125 -1.796875 C 27.125 -0.992188 26.75 -0.296875 26 0.296875 L 25.921875 0.375 L 25.859375 0.453125 C 24.203125 1.492188 22.648438 2.21875 21.203125 2.625 C 19.753906 2.96875 18.082031 3.140625 16.1875 3.140625 C 13.1875 3.140625 10.640625 2.039062 8.546875 -0.15625 Z M 8.546875 -0.15625 "/></g></g></g></g></g></svg>